<?xml version="1.0" encoding="UTF-8"?>
<svg id="Layer_2" data-name="Layer 2" xmlns="http://www.w3.org/2000/svg" xmlns:xlink="http://www.w3.org/1999/xlink" viewBox="0 0 612 258.89">
  <defs>
    <style>
      .cls-1, .cls-2 {
        fill: #fff;
      }

      .cls-3 {
        letter-spacing: -.01em;
      }

      .cls-4 {
        letter-spacing: .05em;
      }

      .cls-2 {
        font-family: Nunito-Black, Nunito;
        font-size: 69.8px;
        font-variation-settings: 'wght' 900;
        font-weight: 800;
      }

      .cls-5 {
        letter-spacing: 0em;
      }

      .cls-6 {
        letter-spacing: -.06em;
      }

      .cls-7 {
        fill: #6f3996;
      }

      .cls-8 {
        clip-path: url(#clippath);
      }

      .cls-9 {
        fill: none;
      }

      .cls-10 {
        letter-spacing: -.07em;
      }
    </style>
    <clipPath id="clippath">
      <circle class="cls-9" cx="464.53" cy="125.12" r="46.1"/>
    </clipPath>
  </defs>
  <g id="Layer_1-2" data-name="Layer 1">
    <g>
      <rect class="cls-7" width="612" height="258.89"/>
      <circle class="cls-1" cx="464.53" cy="125.12" r="45.5"/>
      <g class="cls-8">
        <g>
          <path class="cls-7" d="m560.46,124.51c-.05.06-.15.21-.26.34.41.65.42.67-.09,1.31-.5.62-1.03,1.21-1.56,1.79-.13.14-.33.22-.52.28-.63.21-1.27.41-1.91.61-.25.08-.35.19-.34.49.02.32.06.76-.47.79-.1,0-.27-.06-.3-.13-.03-.08.06-.21.12-.31.03-.05.12-.05.15-.1.12-.18.24-.36.35-.55-.24-.1-.57-.35-.7-.27-.39.23-.73.58-1.03.92-.07.08-.02.37.08.5.2.28.5.5.7.79.23.33.49.67.59,1.05.19.7.06.86-.54,1.25-.36.23-.68.51-1.01.76-.56-.8-1.32-1.4-2.23-1.91-.16.47-.31.89-.45,1.32-.02.07-.03.17,0,.22.34.44.39,1.05.96,1.35.53.27.96.63.91,1.35-.02.29.17.59.29.97-.73-.27-1.23-.64-1.44-1.31-.17-.57-.28-1.17-.85-1.53-.08-.05-.13-.22-.11-.33.16-.87.02-1.71-.25-2.53-.08-.25-.16-.5-.24-.75-.23.12-.45.24-.68.36-.11.05-.22.1-.35.16-.03-.1-.08-.17-.07-.23.15-.7-.16-1.2-.64-1.67-.21-.2-.3-.52-.47-.77-.07-.1-.22-.23-.31-.22-.56.12-1.11.28-1.65.43-.17.18-.34.39-.54.57-.54.48-1.05,1.03-1.67,1.38-.66.37-.77.84-.72,1.51.05.67-.07,1.32-.69,1.75-.22.15-.43.24-.56-.08-.49-1.2-1.01-2.4-1.44-3.63-.19-.54-.18-1.14-.26-1.65-.28.09-.6.24-.92.25-.14,0-.29-.29-.49-.49.2-.06.3-.09.4-.11-.02-.03-.02-.07-.04-.08-.42-.32-.88-.6-1.26-.97-.2-.19-.34-.26-.62-.25-.97.02-1.93-.01-2.9-.04-.29,0-.53-.09-.6-.44-.01-.08-.24-.19-.34-.16-.93.23-1.63-.03-2.14-.83-.07-.12-.13-.24-.2-.36-.23-.39-.55-.24-.85-.11-.34.14-.18.38-.06.57.29.45.58.9.9,1.33.15.2.38.35.54.56.77.33,1.35-.06,1.91-.7-.11.72.31.87.79,1.06.62.24.66.5.25,1-.44.52-.74,1.18-1.41,1.48-.28.12-.57.22-.84.36-.21.1-.4.24-.6.37-.14.09-.25.23-.4.29-.93.35-1.87.68-2.81,1.02-.21.08-.55.09-.45.45.09.33.34.52.69.47.36-.05.72-.14,1.08-.21.49-.09.99-.18,1.53-.28-.03.19-.02.37-.09.51-.57,1.26-1.14,2.5-2.31,3.37-.76.57-1.41,1.27-2.08,1.95-.74.75-.53,2.28-.1,3.06.18.33.2.76.24,1.14.11,1.1,0,1.19-.95,1.72-.52.29-.96.71-1.42,1.09-.07.06-.08.25-.06.37.04.24.14.47.2.71.2.77.12.94-.64,1.19-.27.09-.37.2-.34.48.06.51-.14.92-.47,1.29-.27.31-.5.66-.77.97-.68.79-1.54,1.18-2.58,1.23-.43.02-.85.09-1.28.16-.54.09-.91-.17-.88-.7.04-.77-.36-1.38-.76-1.93-.37-.52-.59-1.06-.62-1.64-.05-.89-.35-1.66-.81-2.4-.52-.83-.42-1.99.24-2.72.25-.28.28-.51.15-.86-.14-.38-.14-.81-.24-1.21-.2-.81-.59-1.5-1.25-2.03-.34-.27-.43-.58-.29-1.02.11-.33.13-.69.15-1.04.02-.47-.32-.8-.8-.81-.14,0-.28-.02-.41,0-.36.07-.55-.05-.7-.4-.08-.18-.34-.31-.55-.4-.12-.06-.3-.02-.45.02-1.1.23-2.15.71-3.31.53-.13-.02-.29.02-.4.09-.53.35-.94.11-1.35-.24-.26-.22-.58-.36-.82-.59-.25-.23-.44-.52-.66-.78-.32-.38-.63-.78-.99-1.14-.22-.22-.24-.44-.28-.74-.08-.68.29-1.23.32-1.84.02-.41-.17-.83-.22-1.26-.03-.23-.03-.49.07-.69.25-.51.56-.99.85-1.47.27-.45.59-.84,1.1-1.07.5-.23.82-.57.78-1.21-.04-.55.34-.92.84-1.16.34-.16.57-.41.55-.82-.02-.54-.21-.71-.75-.68-.09,0-.18,0-.27,0-.13-.51-.27-.99-.04-1.54.11-.28-.01-.66-.05-.99-.04-.34.03-.53.43-.49.75.06,1.51.07,2.26.12.28.02.41-.07.47-.36.22-1.04-.15-1.67-1.19-1.96-.07-.02-.13-.06-.2-.09,0-.05-.02-.1-.02-.15.22-.04.44-.12.66-.11.24,0,.46.08.55-.24.02-.06.14-.13.22-.13.58.02.91-.33,1.21-.76.08-.12.28-.15.41-.25.22-.17.51-.31.62-.54.19-.4.45-.62.89-.7.36-.06.7-.18,1.06-.27-.03-.57-.64-.99-.32-1.54.13-.22.44-.33.67-.49.05.03.09.06.14.08-.03.45-.07.89-.09,1.34-.02.5.25.68.73.49.27-.11.52-.28.74.08.04.06.23.06.33.02.28-.09.55-.2.82-.31.3-.13.58-.18.92-.04.42.18.89-.18.93-.65.02-.26.02-.52.08-.78.06-.23.2-.39.47-.22.24.14.57.41.75.09.1-.16-.15-.53-.26-.8-.02-.05-.07-.09-.13-.15.28-.39.71-.41,1.08-.38.5.05.94-.04,1.36-.37-.29-.31-.66-.34-1.04-.26-.35.07-.68.18-1.03.26-.51.13-.73.04-.89-.44-.13-.4-.21-.83-.26-1.25-.01-.13.15-.3.27-.41.49-.43.99-.85,1.5-1.28-.41-.38-1.23-.48-1.56-.22-.12.09-.2.28-.21.43-.05.5-.29.79-.76.98-.46.19-.82.5-.99,1.02-.15.45-.1.77.32,1.01.12.07.22.16.36.26-.1.12-.18.26-.29.35-.47.34-.85.7-.64,1.36.03.09-.08.28-.17.34-.34.2-.7.4-1.07.54-.32.12-.66.17-1.02.25-.08-.28-.13-.53.32-.42.29.07.4-.1.32-.33-.21-.57-.46-1.13-.72-1.68-.02-.04-.25-.04-.34.01-.24.13-.45.32-.69.45-.58.32-1.05.14-1.16-.5-.31-1.75-.53-1.49,1.06-2.41.81-.47,1.41-1.09,1.89-1.87.22-.36.58-.63.85-.96.1-.12.13-.31.16-.47.03-.15,0-.31,0-.47.18.05.36.1.66.18,0-.01.06-.15.16-.26.21-.23.44-.64.65-.63.79.02,1.38-.48,2.08-.66.26-.06.48-.25.77-.02.1.08.36,0,.53-.05.49-.14.92.04,1.49.21-.24.2-.39.33-.55.46,0,0,.02.06.03.05.76-.03,1.44.35,2.17.46.91.14,1.65.65,2.4,1.11.32.19.29.51,0,.67-.3.17-.68.34-1.01.31-.56-.04-1.1-.24-1.66-.37-.23-.06-.46-.12-.71-.18.01.1,0,.15.02.15.58.22.87.63.96,1.25.06.43.79.74,1.36.59-.22-.18-.39-.32-.65-.53.16-.06.28-.14.39-.13.19.02.38.11.57.17.34.1.58.09.51-.39-.04-.31.6-.74,1.03-.72.22.01.45.04.71.07-.05-.4-.12-.75-.13-1.09,0-.18-.14-.49.23-.49.3,0,.62.04.7.42-.04.05-.06.08-.08.1-.16.11-.31.21-.47.31.07.09.13.24.22.26.25.05.69.16.75.05.38-.58,1-.69,1.55-.92.33-.14.67-.28,1.03-.43.02.15.04.31.06.47.57-.11,1.12-.23,1.66-.32.15-.02.34-.01.46.06.23.16.42.18.59-.06.18-.26.14-.49-.14-.66-.22-.14-.45-.26-.68-.4.02-.04.04-.08.06-.12l4.15,1.35s.08-.06.12-.1c-.1-.16-.17-.39-.32-.48-.51-.31-.48-.82-.52-1.3,0-.07.03-.2.07-.21.78-.25.79-1.15,1.35-1.59.03-.03.07-.05.14-.11.12.34.23.68.66.7.01,0,.02.31.01.47-.01.21-.06.43-.06.64.01.38.03.76.09,1.13.03.23.14.45.21.68.03.11.09.23.07.33-.15.58-.8,1.02-1.4.97-.08,0-.17,0-.35,0,1.44.56,2.27.03,2.38-1.39.73-.31,1.03.17,1.26.82.19-.69.02-.96-.55-1.02-.18-.02-.37-.02-.55-.02-.47,0-.67-.25-.48-.67.14-.32.18-.54-.11-.81-.21-.18-.15-.45.14-.54.33-.11.49-.29.52-.66.04.12.11.25.1.37-.09.79-.08.81.73.81.04,0,.08,0,.14,0-.15-.05-.33-.06-.39-.15-.06-.1-.06-.35,0-.39.42-.27.84-.5,1.36-.2.31.18.67.3.93.42.08.36.16.68.23.99.05,0,.1,0,.15-.01.04-.07.13-.15.11-.21-.15-.52-.23-1.06-.83-1.35-.21-.1-.3-.44-.41-.69-.01-.02.23-.22.36-.23.81-.07,1.62-.12,2.47-.17-.15-.21-.31-.42-.55-.74.56-.22,1.05-.44,1.55-.6.5-.15,1.01-.27,1.53-.35.37-.06.76,0,1.13-.04.39-.04.78-.1,1.15-.22.37-.12.73-.2.95-.66.27-.55.93-.6,1.42-.23.18.14.36.3.56.4.17.09.38.17.58.16.72-.03,1.45-.13,2.05.43.39.37.4.62-.09.88-.9.47-1.81.89-2.72,1.33-.04.02-.08.05-.1.12.6.09,1.17.09,1.72-.27.14-.09.36-.15.52-.12.53.11,1.05.22,1.61.14.5-.07.97-.03,1.48.26.47.27,1.16.19,1.75.23.07,0,.18-.21.22-.34.08-.23.17-.31.44-.26.31.06.64.05.96.06.65.01.86.25.77.89-.07.52.25,1.03.76,1.12.13.02.36-.09.43-.2.18-.31.32-.58.7-.23.03.03.08.05.13.05.81,0,1.62,0,2.42,0,.07-.78.28-.99,1.01-.96.49.02.97.13,1.46.19.34.04.69.05,1.04.1.15.02.32.08.44.18.13.11.17.36.29.4.55.17,1.02.55,1.66.46.57-.08,1.16-.07,1.74-.07.38,0,.61.17.7.58.13.54.29.59.82.48.33-.07.67-.08,1-.09.57-.02,1.14-.02,1.67-.03.17.18.35.41.58.59.07.06.27.03.37-.04.05-.03.04-.22,0-.33-.15-.52-.16-.48.43-.45,1.53.08,2.97.43,4.29,1.24.52.32,1.21.49,1.12,1.32.09-.01.12-.01.14-.02.18-.12.1-.59.47-.44.43.17.83.43,1.23.66.01,0-.06.24-.1.24-.56.03-.79.41-.92,1.02-.42-.26-.77-.48-1.13-.69-.16-.1-.36-.25-.52-.23-.4.07-.65-.04-.82-.4-.02-.05-.09-.07-.15-.11-.24.3.09.86-.44.98-.36.08-.74.07-1.01.09.24.34.52.72.78,1.11.05.08.06.26,0,.33-.04.06-.23.07-.32.03-.39-.16-.75-.08-1.1.11-.68.38-1.36.76-2.05,1.12-.13.07-.34.07-.47,0-.28-.15-.51-.17-.82-.02-.29.14-.65.19-.98.21-.4.03-.75.06-.91.52-.07.19-.25.33-.31.4.18.45.33.8.48,1.16q-.59.29-.61,1.04c-.46-.1-.66.21-.88.54-.31.47-.66.91-1.13,1.36-.13-.57-.29-1.13-.38-1.71-.19-1.19.06-1.55,1.07-2.22.76-.5,1.45-1.13,2.11-1.77.23-.22.27-.62.4-.94-.04-.03-.08-.07-.12-.1-.5.42-1,.85-1.5,1.27-.07-.05-.12-.06-.15-.1-.12-.18-.21-.49-.35-.51-.41-.05-.86-.14-1.22.23-.23.24-.49.47-.74.69-.22.19-.47.37-.07.67-.45.06-.82.11-1.19.16-.11-.44-.42-.6-.86-.54-.68.09-1.36.18-2.04.19-.59,0-1.06.12-1.48.57-.55.58-1.17,1.09-1.77,1.62-.18.16-.4.26-.64.41.36.28.71.54,1.06.81q.85-.4,1.6.53c.15-.2.29-.39.47-.63.17.89.32,1.69.48,2.5-.73.41-.76.55-.32,1.46-.16.02-.3.04-.51.07,0-.5,0-.97,0-1.44,0-.41.03-.83,0-1.24,0-.13-.13-.25-.2-.37-.11.11-.23.22-.34.33-.02.02-.02.06-.01.09.14.9-.37,1.55-.88,2.18-.47.57-.97,1.11-1.47,1.65-.24.26-.55.41-.91.25-.43-.18-.72.05-.96.33-.37.44-.72.9-1.11,1.4.14.21.38.51.56.84.37.66.23,1-.49,1.23-.17.05-.34.12-.54.19v-1.46c-.18-.02-.34-.05-.48-.07-.02-.06-.04-.08-.05-.11-.05-.24-.09-.48-.13-.72-.31.06-.62.11-.92.19-.11.03-.2.12-.39.24.08-.34.14-.6.2-.87-.04-.04-.07-.07-.11-.11-.59.37-1.19.74-1.82,1.13.26.23.54.49.8.71.4-.04.77-.08,1.15-.12l.02.12c-.32.22-.64.43-.96.65-.27.18-.32.37-.08.64.34.4.64.83,1.03,1.33Zm-43.44-3.01h0c-.02-.28.05-.61-.07-.83-.13-.23-.43-.38-.68-.52-.69-.37-1.33-.78-1.7-1.5-.17-.32-.39-.33-.67-.14-.54.35-1.1.61-1.77.35-.24-.09-.36.01-.33.26.05.47-.15.72-.61.87-.51.16-.83.49-.81,1.09,0,.17-.12.38-.25.51-.38.41-.85.63-1.43.63-.11,0-.24.13-.34.23-.02.01.06.19.11.2.57.08,1.12.27,1.71.01.57-.25,1.17-.47,1.78-.56.85-.13,1.71-.13,2.57-.17.09,0,.26.05.27.1.05.31.18.68.06.92-.21.43-.04.61.29.74.24.1.5.12.75.19.27.08.6.13.78.31.22.24.42.41.75.44.19.02.38.11.56.2.61.3.6.31.74-.36.1-.49.52-.69.97-.53.83.29,1.68.55,2.53.81.15.04.37.04.48-.04.34-.22.65-.18,1-.07.57.17.8.06.98-.37.15-.35.34-.7.4-1.07.05-.31-.05-.65-.08-.97-.28.05-.55.1-.83.15-.13.02-.3.12-.38.06-.36-.25-.69-.46-1.11-.13-.03.02-.09.01-.13,0-.86-.05-1.55-1.1-1.3-1.89.32-.03.62-.04.91-.1.24-.05.46-.16.7-.24.23-.08.46-.16.7-.22.25-.07.5-.18.74-.16.38.03.74.19,1.12.25.48.08.97.18,1.45.15.21-.02.48-.31.57-.55.06-.13-.13-.45-.3-.57-.47-.36-.98-.67-1.48-1.01.19-.31.4-.65.67-1.11-.5.12-.88.17-1.24.31-.17.06-.38.26-.4.41-.02.17.17.36.25.51-.09.02-.29.03-.47.09-.35.13-.41-.01-.52-.33-.09-.25-.39-.47-.64-.62-.09-.05-.37.1-.47.23-.29.35-.57.73-.81,1.12-.28.45-.6.92.12,1.42-.41.1-.74.29-.99.21-.67-.21-1.11.15-1.66.43.27.25.5.47.72.68-.24.31-.46.59-.73.93-.17-.31-.31-.53-.42-.76-.43-.99-.68-1.14-1.84-1.09.22.43.16.8-.24,1.08Zm15.9-1.36s.01-.09.02-.14c-.14-.11-.28-.22-.41-.32-.36-.28-.73-.55-1.08-.84-.3-.25-.28-.48.08-.67.18-.09.36-.18.51-.31.09-.08.17-.23.17-.34,0-.07-.16-.16-.26-.21-.09-.05-.21-.06-.31-.07-.85-.08-1.36.54-1.97.95-.06.04-.01.25.01.38.14.65.46,1.2.93,1.65.17.17.21.31.07.52-.08.11-.11.25-.18.37-.22.34-.1.57.22.74.09.05.18.11.28.16.48.25,1.37.31,1.47.05.2-.48.11-.95-.21-1.38-.09-.12-.11-.28-.15-.4.32-.05.57-.1.82-.14Zm-8.83,6.05c.42.77.79,1.57,1.28,2.3.21.31.34.57.37.93.03.26.21.51.33.76.13.25.27.49.4.74.07.13.1.31.2.4.47.4.96.78,1.47,1.19.03-1.22-.43-2.21-1.2-3.06-.3-.34-.54-.65-.48-1.13.01-.09-.02-.22-.08-.3-.4-.56-.83-1.09-1.21-1.66-.26-.4-.53-.58-1.08-.17Zm-5.87-5.84c.21-.56.15-.79-.3-1.02-.64-.32-1.24-.67-1.62-1.3-.04-.06-.1-.15-.16-.15-.23,0-.45.01-.68.02.04.2.04.42.14.59.12.21.32.37.48.55.57.67,1.31,1.05,2.14,1.31Z"/>
          <path class="cls-7" d="m443.78,112.81c.56-.31,1.06-.57,1.54-.85.46-.27.78-.63.81-1.25-.63-.04-1.25-.07-1.9-.11-.01-.1-.03-.21-.03-.31-.01-.35-.04-.64-.49-.3-.08.06-.25.05-.35.01-.34-.11-.71-1.12-.52-1.42.2-.32.38-.67.87-.6.14.02.3-.06.44-.11.6-.2.65-.31.38-.96-.94.21-1.91.52-2.61-.56.35-.16.73-.33,1.12-.49.07-.03.21,0,.26.04.5.5.96.16,1.41-.02-.78-.46-1.55-.93-2.45-1.46.3-.11.51-.22.72-.25.35-.04.57-.22.78-.49.2-.26.49-.5.79-.64.57-.26,1.17-.44,1.76-.65.03-.01.06-.04.08-.04.6.15,1.19.31,1.79.46.1.03.2.08.3.09,1.11.12,2.24.18,3.34.35.73.12,1.45.37,2.16.6.42.14.82.42,1.18-.1.05-.07.19-.06.3-.09.47-.12.94-.21,1.4-.36.21-.06.36-.16.5.09.04.07.22.12.3.08.2-.09.38-.23.62-.38.19.24.42.52.68.85.2-.21.37-.4.57-.61.13.44.41.35.74.23.17-.06.42-.11.57-.03.79.38,1.62.56,2.49.6.1,0,.2.04.29.06,0,.06.02.09.01.12-.25.62-.22.66.49.65.2,0,.41,0,.59-.06.66-.19,1.21,0,1.74.45-.06-.17-.15-.34-.17-.52-.02-.18-.02-.45.08-.53.14-.1.39-.09.58-.06.17.03.33.16.48.26.73.44,1.54.49,2.36.44.34-.02.37-.27.38-.48,0-.18-.13-.36-.23-.59.27-.38.69-.46,1.09-.09.1.09.08.32.08.49,0,.34-.04.67-.07,1.07.35-.38.63-.66.89-.96.18-.21,0-.77-.27-.83-.66-.16-.9-.74-.47-1.26.26-.32.26-.59.18-.97-.18-.85-.02-1.21,1.04-1.09.31.04.62.1.96.15-.3.76-1.09.79-1.63,1.2.42.63,1.13,1.09,1.01,2.03.72-.14.53.54.77.97.11-.19.15-.32.25-.4.11-.09.3-.19.4-.15.11.04.19.23.23.37.03.09-.09.22-.06.3.06.18.18.33.27.49.13-.1.26-.19.38-.29.05-.05.07-.15.13-.17.37-.18.37-.48.31-.82-.02-.11-.01-.24-.02-.4.6-.01,1.13.07,1.51.54.06.08.07.33.01.36-.31.18-.2.38-.04.56.29.31.2.51-.13.73-.51.35-1.01.59-1.59.13-.14.34-.24.65-.4.91-.21.35-.39.79-.95.71-.07-.01-.16.01-.21.06-.49.43-1.04.81-1.43,1.32-.3.39-.4.94-.55,1.43-.03.11.12.39.2.39.61.04.76.42.75.96.24,0,.46-.05.66,0,.39.11.79.24,1.15.43.63.34,1.25.67,1.98.66.28,0,.32.15.34.38.04.6.24,1.15.68,1.57.13.13.46.22.58.15.16-.1.29-.38.28-.59,0-.31-.12-.63-.21-.94-.07-.27-.02-.41.28-.51.75-.26,1.02-.75.76-1.41-.11-.27-.39-.47-.62-.74.55-.48.19-1.14.14-1.75-.04-.49-.05-.53.46-.43.11.02.21.06.32.05.75-.05,1.33.25,1.98.63.51.3.67.5.63,1.05-.04.5.5.63.82.73.2.06.57-.26.78-.48.17-.17.21-.46.3-.69.38.55.75,1.08,1.12,1.62.04.06.1.14.1.2-.04.84.67,1,1.19,1.34.36.24.73.5,1.03.81.29.3.09.72-.31.87-.38.14-.73.36-1.1.52-.25.11-.51.19-.77.25-.16.03-.34.02-.5-.01-1.54-.29-2.55.43-3.25,1.75.8-.55,1.51-1.34,2.65-1.01,0,.09,0,.14-.02.18-.45.85-.4.96.56,1.22.35.09.7.31,1.01-.08.02-.03.17.05.26.07-.04.1-.05.27-.12.3-.31.14-.64.22-.95.35-.32.13-.63.3-.95.43-.11.05-.24.05-.36.07,0-.13-.04-.3.03-.38.13-.17.32-.3.54-.49-.12-.01-.2-.05-.25-.02-.59.27-1.16.57-1.75.81-.48.2-.6.52-.49.99.02.09.02.18.03.31-.16.01-.29.02-.42.04-.46.07-.87.16-1.07.71-.11.31-.37.61-.64.83-.26.21-.28.41-.19.68.11.31.02.49-.28.67-.5.3-.97.65-1.41,1.03-.53.44-.56.73-.31,1.38.14.36.29.71.36,1.09.04.21-.08.44-.12.67-.17-.14-.4-.24-.5-.41-.18-.33-.31-.7-.42-1.06-.1-.32-.23-.52-.62-.44-.15.03-.33-.06-.49-.08-.53-.07-1.05-.13-1.62-.2,0,.66-.35.63-.75.51-.85-.27-1.58-.03-2.2.56-.14.13-.25.35-.28.54-.07.45-.05.92-.11,1.37-.11.73.1,1.35.54,1.93.28.37.6.56,1.06.5.2-.02.4-.05.6-.05.43,0,.67-.16.77-.64.13-.61.44-.71,1.4-.59-.25.78-.5,1.55-.75,2.36.54,0,.98,0,1.42,0,.72.02.83.16.73.86-.02.14,0,.29-.06.41-.25.61.01,1.02.48,1.38.28.22.56.29.84.1.43-.28.78-.15,1.14.11.4.29.59.27.77-.19.18-.45.45-.68.93-.76.28-.05.52-.26.81-.41v.57c.16-.07.28-.11.39-.17.28-.17.53-.22.75.11.07.1.25.16.39.18.3.06.61.1.91.13.13.01.3.03.39-.03.28-.19.53-.13.82-.01.17.07.38.01.59.01-.31.5.05.63.48.76.17.05.35.19.46.34.35.45.74.7,1.36.67.99-.05,1.53.35,1.9,1.27.13.31.18.66.37.93.14.2.43.38.67.42.56.1,1.02.35,1.5.64.38.23.91.28,1.38.31.5.04.92.19,1.3.51.18.15.4.29.63.36.57.16.88.74.65,1.32-.08.19-.21.37-.35.53-.33.4-.71.77-1.01,1.19-.16.22-.29.52-.28.78.05,1.22-.42,2.24-1.1,3.2-.11.15-.35.28-.53.29-.84.04-1.51.47-2.17.92-.13.09-.25.32-.22.46.14.87-.41,1.38-.92,1.94-.23.25-.41.56-.59.85-.65,1.07-1,1.34-2.24.84-.11-.04-.22-.08-.43-.17.25.31.46.52.6.76.4.7.22,1.16-.56,1.4-.22.07-.44.13-.67.17-.22.03-.45.03-.63.04-.12.36-.15.8-.37.95-.22.15-.64-.01-.97-.03-.04.04-.07.08-.11.13.18.22.35.44.52.65-.12.19-.25.46-.43.7-.17.24-.35.5-.59.66-.47.33-.5.57-.03.9.15.1.3.2.46.3-.39.45-.73.89-1.12,1.29-.4.42-.34.91-.06,1.44.29.54.71.96,1.37,1.1-.64.46-2.12.37-2.57-.17h.68c.06-.41.11-.79.17-1.19-.59.09-.75.55-.92,1.01-.66-.02-.86-.55-1.04-.99-.2-.47-.16-1.04-.36-1.5-.26-.59.5-.84.32-1.38-.12-.04-.26-.09-.36-.13.12-.32.22-.64.38-.94.04-.08.25-.06.42-.09.09-.38.19-.82.31-1.33-.1-.02-.22-.07-.3-.03-.06.03-.08.17-.09.27-.02.17-.02.34-.03.51-.07,0-.14,0-.21,0,.03-.42.05-.84.09-1.26.04-.39.08-.79.14-1.18.04-.24.09-.49.2-.69.47-.87.74-1.77.71-2.77-.01-.45.14-.91.18-1.36.08-1.22.15-2.44.19-3.66,0-.16-.14-.39-.28-.49-.41-.3-.84-.57-1.28-.81-.48-.26-.74-.63-.97-1.15-.44-.98-.82-2.02-1.63-2.81-.42-.41-.39-.75.06-1.1.07-.05.12-.13.18-.19-.38-.62-.35-.98.13-1.53.14-.16.26-.35.43-.48.83-.6.76-1.88.16-2.58-.3-.35-.43-.37-.67.01-.05.09-.09.19-.19.39-.7-.36-1.37-.7-2.03-1.06-.07-.04-.08-.19-.1-.28-.11-.47-.7-1.02-1.17-1.11-.78-.14-1.53-.32-2.08-.97-.12-.15-.45-.14-.69-.17-.4-.04-.83.04-1.2-.1-.82-.3-1.61-.68-2.4-1.06-.38-.19-.63-.43-.56-.97.04-.31-.23-.72-.46-.99-.63-.73-1.34-1.39-1.99-2.11-.25-.28-.42-.62-.62-.94-.06-.1-.07-.27-.15-.33-.16-.1-.35-.13-.53-.19-.03.16-.14.37-.07.47.36.58.77,1.13,1.16,1.7.16.24.29.49.44.73l-.14.12c-.11-.12-.3-.22-.32-.36-.08-.46-.33-.7-.76-.8-.26-.06-.41-.19-.26-.5.05-.1.02-.32-.05-.38-.59-.43-.7-1.14-1.07-1.69-.16-.24-.4-.51-.65-.59-.54-.16-.85-.51-1.11-.96-.23-.39-.5-.77-.75-1.15-.46-.7-.42-1.49-.39-2.27.02-.47.14-.95.12-1.42-.04-.82-.53-1.36-1.25-1.73-.29-.15-.47-.3-.26-.72.08-.16-.19-.69-.42-.79-.5-.23-.63-.63-.78-1.07-.08-.23-.21-.45-.32-.67l-.11.04c.01.13.02.27.03.42-.34.06-.63.08-.72-.35-.01-.06-.04-.12-.09-.16-.86-.65-1.53-1.56-2.53-2.03-.2-.1-.44-.11-.66-.17-.75-.2-1.51-.37-2.25-.6-.37-.12-.6-.2-.57.32,0,.08-.05.2-.1.23-.39.15-.8.29-1.23.44-.02-.52.18-.88.6-1.13-.02-.03-.05-.07-.07-.1-.2.1-.43.17-.6.31-.27.23-.52.48-.74.76-.11.14-.14.34-.21.51.15.05.31.09.46.14.07.02.14.05.23.08-.06.4-.32.59-.66.66-.02,0-.12-.35-.2-.62-1.07.66-1.97,1.65-3.46,1.68Zm34.38,5.44c0-.05.01-.11.02-.16-.17-.16-.33-.43-.52-.46-.76-.11-1.53-.19-2.27.07-.15.05-.34.2-.38.34-.11.46-.19.93-.22,1.4,0,.15.2.31.31.46.12-.17.37-.37.34-.49-.22-.82.25-1.25.88-1.65.23.45.46.9.74,1.43.33-.48.44-1.02,1.09-.95Zm-5.02-1.14c.42.25.76.22,1.13.1.16-.05.41-.11.51-.03.53.44,1.03,0,1.58-.03-.37-.42-.79-.76-1.21-1.09-.04-.03-.15,0-.22.04-.58.33-1.16.66-1.79,1.02Zm5.23,2.28c-.02-.06-.04-.13-.06-.19-.42.07-.85.13-1.27.23-.1.02-.16.18-.24.28.11.06.24.2.31.17.43-.14.84-.33,1.26-.5Zm-19.21-3.89c.38.43.76.85,1.16,1.29.33-.6-.3-1.07-1.16-1.29Zm19.15,3.29c.02.05.03.11.05.16.99.09,1.08.06,1.24-.48-.46.12-.87.22-1.29.32Z"/>
          <path class="cls-7" d="m488.57,93.51c.08-.2.14-.34.21-.52.35.14.69.27,1.07.42-.04-.27-.07-.45-.12-.71.82.26,1.55.48,2.28.71l.04-.1c-.17-.07-.35-.11-.51-.2-.11-.07-.2-.19-.3-.28.11-.04.22-.1.33-.13.13-.03.26-.04.47-.07-.12-.15-.2-.24-.36-.43.66-.02,1.23-.03,1.8-.05.09,0,.19,0,.27-.04.36-.16.69-.11,1.02.22.03-.55.41-.5.75-.53,1.2-.09,2.4-.19,3.58.12.46.12.89.31,1.35.46.16.05.33.07.49.11.21.05.42.11.62.24-1.04.47-2.16.2-3.22.52.16,0,.33-.02.49,0,.51.07,1.01.17,1.51.24.2.02.42.02.6-.05.26-.1.56-.4.76-.04.19.33-.12.55-.4.71-.06.04-.11.09-.19.15.36.08.52,0,1.42-.61.4.27.77.28,1.21,0,.64-.41,1.26.03,1.9.09l.03.14c-.48.21-.98.4-1.44.65-.46.26-.89.58-1.35.89-.02-.07,0-.18-.05-.21-.14-.1-.3-.17-.46-.25-.03.14-.14.36-.08.42.4.45.15.68-.23.92-.15.09-.26.26-.35.42-.15.25-.14.44.21.54.33.09.66.23.93.42.09.06.01.36.01.63-.48-.5-.78-.5-1.55-.05.24.11.44.19.64.3.16.09.33.18.45.31.21.22.19.41-.15.48-.14.03-.27.07-.42.12.05.08.06.12.09.13.18.1.37.2.56.3-.27.31-.51.66-.82.92-.13.11-.41.05-.63.06,0,.02,0,.07,0,.08.22.13.53.25.33.58-.19.32-.43.02-.64-.02-.13-.03-.25-.1-.37-.16-.02.03-.04.06-.07.09.16.11.32.22.47.33.21.17.47.31.61.53.1.15.04.41.04.61-.23-.02-.48.01-.67-.08-.23-.11-.39-.34-.59-.5-.07-.06-.19-.07-.27-.09-.28.24.35.73-.37.8.54.11.99.2,1.49.31-1.03.89-2.18,1.22-3.44,1.27-.19,0-.4.17-.55.31-.38.35-.7.76-1.11,1.07-.22.17-.57.22-.86.23-.69.02-1.19.43-1.23,1.1-.02.31-.08.55-.35.75-.13.1-.18.3-.24.47-.13.37-.23.76-.36,1.13-.09.24-.28.33-.51.16-.4-.28-.78-.59-1.33-.49-.11.02-.3-.16-.38-.29-.49-.74-.95-1.49-1.42-2.25-.29-.46-.72-.86-.66-1.46.03-.32.16-.63.26-.94.01-.04.13-.07.2-.07.63-.01.8-.28.55-.97-.19.11-.37.2-.54.31-.27.18-.58.24-.78-.03-.11-.14-.14-.44-.06-.61.14-.31.43-.34.74-.19.2.09.41.14.64.15-.4-.66-.92-1.04-1.77-.64-.05-.32-.1-.56-.11-.8-.04-.79-.43-1.41-.87-2.03-.63-.88-1.54-1.03-2.51-1.04-.32,0-.65,0-.96.08-.58.13-1.08.13-1.46-.43-.1-.14-.33-.19-.64-.36.76-.09,1.38-.17,2.01-.25l.03-.17c-.94.06-1.8-.1-2.58-.57,0-.06-.01-.11-.02-.17.79-.2,1.58-.44,2.38-.58.64-.11.71-.11.88-.82-.33-.05-.65-.1-.97-.15-.01-.05-.02-.1-.03-.15.22-.12.42-.27.65-.36.43-.17.86-.33,1.3-.45.3-.08.61-.1.59-.54,0-.07.21-.19.33-.21.18-.03.36,0,.51-.07.2-.09.41-.28.59-.26.56.06,1.3-.59,1.64.47Z"/>
          <path class="cls-7" d="m566.39,142.71c-.16.3-.27.57-.42.81-.13.21-.1.32.12.43.5.27.99.55,1.47.86.32.21.54.1.66-.2.1-.26.14-.56.18-.84.08-.5.14-1.01.21-1.52l.21-.03c.1.27.17.54.3.79.12.23.33.4.45.63.24.43.49.87.64,1.33.11.34.18.62.57.74.17.05.32.23.45.37.56.63,1.11,1.26,1.67,1.9.06.07.15.14.16.22.17.93.37,1.87.02,2.8-.03.08-.08.17-.14.24-.57.7-.98,1.48-1.06,2.29-.49.24-.91.47-1.34.66-.1.05-.26.02-.37-.03-.15-.07-.27-.19-.41-.3-.16.14-.3.26-.44.37-.24-.07-.47-.15-.7-.19-.5-.09-.86-.28-.91-.86-.01-.16-.17-.32-.29-.45-.32-.31-.67-.58-.6-1.13-.27.24-.54.47-.8.7-.05-.03-.09-.04-.1-.07-.55-1.32-1.36-1.42-2.66-1.28-.43.04-.85.15-1.26.25-.23.06-.52.13-.66.3-.32.4-.68.47-1.14.37-.43-.09-.81.04-1.16.3-.31.23-.65.34-1.03.14-.32-.16-.55-.32-.26-.73.1-.14.09-.42.04-.61-.23-.87-.56-1.72-.74-2.6-.26-1.32-.1-1.55,1.15-2.05.45-.18.93-.31,1.41-.41.48-.1.77-.35.87-.83.06-.27.18-.44.48-.53.2-.06.35-.27.51-.43.12-.13.2-.31.33-.44.36-.4.63-.44,1.07-.1.35.27.51.18.69-.19.38-.78,1.01-1.05,1.88-.84.29.07.6.09.98.14Z"/>
          <path class="cls-7" d="m473.55,98.63c.21.1.42.27.63.28.53.02,1.06.01,1.58-.08.61-.1,1.19-.12,1.77.08.32.11.39.36.17.55-.22.19-.54.33-.83.36-.61.06-1.24.07-1.86.04-.64-.03-1.27-.12-1.91-.2-.32-.04-.41-.25-.43-.55-.03-.63-.15-.72-.78-.75-.26-.02-.52-.06-.76-.15-.1-.04-.15-.23-.22-.35.13-.06.25-.15.38-.16.16,0,.33.06.49.1.53.12,1.06.32,1.59.32.4,0,.8-.24,1.16-.36.07-.44.1-.83.2-1.21.03-.12.23-.24.37-.26.39-.07.79-.08,1.33-.13-.36-.29-.63-.51-.9-.72-.03.03-.06.06-.1.09.01.15.03.29.03.39-.44.24-.85.47-1.26.7-.69.38-1.77.15-2.13-.47.21-.1.42-.19.63-.29l-.03-.14c-.23.02-.46.03-.68.06-.42.05-.8,0-.95-.44-.14-.44.13-.72.47-.94.03-.02.05-.03.08-.05.5-.36.97-.51,1.47.06.2.22.55.33.85.43.37.13.78.15.96.6.03.08.21.11.35.18-.02-.93-.12-.88.87-.7.19.04.39.03.59.02,0,0,.03-.28.02-.28-.2-.03-.41-.04-.62-.06-.29-.03-.58-.07-.86-.09-.16-.01-.33-.03-.47.03-.38.17-.61.09-.85-.26-.2-.3-.51-.51-.82-.82.62-.07,1.24-.12,1.85-.2.15-.02.29-.15.44-.21.13-.06.27-.16.39-.14.31.06.61.18.83.24.28-.2.48-.45.73-.5,1.64-.31,3.31-.54,4.98-.36.88.09,1.74.33,2.6.52.14.03.26.12.49.22-.32.11-.54.17-.74.25-.47.16-.91.29-1.3.68-.39.39-1.02.54-1.53.82-.22.12-.39.32-.6.45-.13.09-.3.13-.46.18-.52.16-1.04.3-1.56.45,0,.04,0,.08,0,.13.18.04.37.07.55.11-.09.59-.27.77-.83.91-.18.05-.34.21-.5.33-.18.13-.36.28-.61.47.22.06.4.11.57.16-.11.45-.48.66-.9.56-.37-.08-.74-.13-1.12-.14-.7-.03-1.4-.02-2.11-.02-.23,0-.46.05-.69.07l-.03.21Zm3.49-3.95c.65.13,1.33-.1,1.51-.61-.48.2-.96.39-1.51.61Zm-2.11,2.22s-.04.08-.06.12c.11.09.21.21.34.24.12.03.26-.05.39-.08-.09-.08-.18-.19-.29-.24-.12-.05-.26-.04-.39-.05Z"/>
          <path class="cls-7" d="m473.96,102.65h.67s.01-.06.02-.09c-.17-.05-.33-.13-.5-.15-.43-.05-.53-.31-.47-.68.12-.69.71-1.23,1.39-1.28.12,0,.31-.02.35.04.23.35.52.21.81.14.87-.23,1.21.07,1.11.98,0,.06,0,.12,0,.18.23-.05.43-.1.63-.13.19-.03.38-.04.68-.07-.44-.44-1.23-.2-1.31-.92.57-.27,1.41-.07,1.77.4.21.28.46.53.69.8.25.3.57.42.94.35.29-.06.45.06.58.31.07.13.25.21.39.28.25.12.52.19.76.33.5.29.51.52.09.91-.05.05-.12.09-.28.21,1,.49,1.93.94,2.93,1.43-.3.32-.59.66-.91.97-.04.03-.25-.06-.34-.14-.21-.19-.39-.43-.61-.6-.28-.22-.57-.16-.89.18.38.3.74.61,1.11.88.5.37.58.58.36,1.21-.51-.18-1.03-.36-1.54-.54-.02.04-.04.08-.06.12l1.11.88s-.02.05-.03.08c-.25-.05-.5-.09-.73-.17-.68-.23-1.4-.34-1.84-1.05-.39-.62-1.04-.44-1.63-.31-.15.03-.36.07-.46,0-.1-.08-.18-.35-.12-.43.09-.12.3-.19.46-.2.35,0,.69.04,1.04.06-.03-.05-.06-.09-.09-.14.24-.35.5-.68.71-1.04.08-.13.08-.35.03-.51-.05-.15-.17-.31-.31-.39-.75-.47-1.5-.93-2.19-1.63-.1.5-.37.52-.72.48-1.01-.11-2.02-.18-3.03-.28-.27-.02-.51-.1-.59-.49Zm1.5-1.75c-.06-.02-.13-.05-.19-.07-.07.2-.18.4-.19.6-.01.26.05.54.49.66-.04-.44-.08-.82-.12-1.19Z"/>
          <path class="cls-7" d="m465.07,101.56c.39-.47.62-.45.89.03.08.13.13.28.22.4.05.06.17.08.26.11.02-.09.07-.19.05-.28-.02-.1-.11-.18-.16-.28-.15-.29-.22-.54.21-.68.23-.07.42-.26.64-.34.12-.04.28.04.42.07-.03.14,0,.34-.09.4-.27.19-.21.4-.11.63.03.07.07.14.09.21.16.7.5,1.19,1.29,1.26.08,0,.21.25.2.36-.04.28,0,.69-.46.65-.39-.03-.79-.13-1.17-.24-.29-.09-.52-.06-.82.04-.62.2-1.28.29-1.93.39-.12.02-.34-.08-.38-.18-.14-.35-.41-.38-.72-.36-.12,0-.28.03-.36-.03-.15-.13-.25-.31-.37-.47.14-.08.27-.21.42-.22.49-.03.98-.01,1.49-.12-.21-.05-.41-.12-.62-.14-.4-.02-.8.01-1.2-.01-.18-.01-.36-.1-.54-.16.1-.14.19-.28.28-.41-.81-.17-.73-.43-.3-1.02-.02-.04-.04-.07-.07-.11-.27.18-.55.35-.8.55-.18.14-.3.35-.47.5-.44.38-.79.37-1.24.02-.16-.13-.37-.2-.56-.29.11-.59.78-1.04.44-1.82.51,0,.99-.02,1.47,0,.33.02.66.07.98.14.27.06.54.16.8.27.19.08.37.2.55.31.18.11.36.23.61.38.38-.18.78-.05,1.06.4Z"/>
          <path class="cls-7" d="m563.95,137.91c.36,0,.72-.02,1.08,0,.24.02.36.14.34.43-.01.19.11.47.26.56.11.07.41-.05.55-.17.39-.33.74-.52,1.27-.23.42.23.94.29,1.39.49.48.22.93.52,1.38.79.22.13.43.26.67.41-.3.21-.18.49.05.71.36.34.75.65,1.11.94-.32.18-.99.04-1.37-.36-.17-.18-.33-.37-.53-.51-.46-.33-.71-.29-.97.19-.2.37-.43.38-.74.19-.09-.06-.19-.1-.28-.16-.31-.23-.63-.37-1.01-.16-.08.04-.2,0-.33-.09.19-.09.38-.19.57-.28-.05-.61-.26-.9-.81-1.06-.49-.15-1-.26-1.49-.4-.07-.02-.19-.1-.19-.15.03-.66-.49-.8-.94-1.12Z"/>
          <path class="cls-7" d="m558.34,134.86c.23.19.49.4.77.64-.03.03-.08.08-.13.12-.5.4-.56.58-.28,1.13.15.29.14.5-.04.78-.32.5-.57,1.03-.87,1.57-.63-.08-1.34-.18-2.04-.28-.05,0-.13-.05-.15-.09-.17-.39-.38-.77-.5-1.17-.1-.34,0-.58.45-.66.35-.07.67-.35.97-.58.61-.46,1.19-.95,1.82-1.46Z"/>
          <path class="cls-7" d="m530.6,142.64c.32.55.54.99.3,1.62-.38,1-.62,2.05-.97,3.06-.09.28-.3.59-.54.73-.49.28-.82.07-1-.47-.17-.53-.29-1.02.15-1.5.11-.12.1-.41.06-.6-.2-.91-.14-1.08.74-1.36.57-.18.74-.7,1.05-1.11.07-.09.12-.21.21-.38Z"/>
          <path class="cls-7" d="m568.48,118.08c.48.29.95.57,1.42.85-.23.4-.88.64-1.43.52-.15-.03-.35.09-.49.2-.04.03.02.29.11.37.43.38.52.77.26,1.3-.18.36-.25.79-.34,1.19-.06.25-.16.41-.44.44-.32.04-.63.12-.95.18-.06.01-.15,0-.17.04-.33.56-1.02.22-1.44.57-.08.06-.23.03-.41.05.05-.15.09-.27.13-.39-.33-.03-.32-.03-.42.51-.05.26-.16.51-.36.78-.12-.31-.26-.62-.36-.94-.02-.06.1-.17.18-.23.25-.2.53-.36.77-.57.35-.3.76-.4,1.2-.35.26.03.43-.02.55-.28.06-.14.22-.28.36-.32,1.07-.32,1.27-1.22,1.16-2.3-.02-.16.05-.42.16-.47.4-.19.52-.49.51-.89,0-.11,0-.21.01-.25Z"/>
          <path class="cls-7" d="m533.86,102.99c-.95.15-1.52-.51-2.25-.83.16-.21.32-.41.47-.62.37-.52.72-1.04,1.08-1.57.63-.92,1.63-1.25,2.64-1.41.69-.11,1.35-.23,1.98-.53.26-.13.6-.32.78.06.03.07-.34.41-.57.51-.38.16-.79.23-1.2.32-1.1.24-2.01.8-2.8,1.58-.24.24-.52.48-.65.78-.33.72-.25.96.35,1.52.05.05.1.11.17.18Z"/>
          <path class="cls-7" d="m517.14,95.94c0-.12,0-.19,0-.25,0-.36.18-.51.47-.32.85.56,1.69,1.15,2.53,1.73.07.05.1.17.14.26-.1.05-.2.14-.3.15-.53.05-.76-.13-.98-.63-.06-.15-.2-.32-.34-.36-.09-.02-.28.15-.37.28-.34.47-.66.95-1,1.44-.28-.19-.56-.33-.78-.53-.12-.1-.22-.33-.19-.46.03-.13.24-.23.38-.33.12-.08.25-.13.37-.21.01,0-.04-.15-.06-.15-.18,0-.39-.05-.53.02-.61.32-.63.33-1.03-.24-.12-.18-.28-.33-.4-.5-.06-.09-.07-.21-.11-.32.11-.03.22-.1.33-.09.47.04.95.09,1.41.18.15.03.26.2.44.34Z"/>
          <path class="cls-7" d="m508.52,112.87c-.05-.16-.07-.33-.16-.46-.42-.57-.29-1.23.35-1.57.13-.07.28-.12.53-.23-.14.25-.24.43-.37.66.32.05.59.09.86.13,0,.08,0,.12-.02.14-.42.54-.42.53.02,1.05.43.51.87,1.02,1.28,1.55.19.24-.2.92-.56.98-.63.1-1.26.18-1.97.29.19-.12.36-.23.57-.37-.22-.15-.32-.22-.45-.31.21-.34.12-.81.58-1.01.05-.02.03-.38-.07-.49-.14-.16-.38-.23-.6-.34Z"/>
          <path class="cls-7" d="m553.4,138.7c.14-.08.23-.16.34-.19.07-.02.18.02.23.07.03.03.02.14,0,.2-.07.26-.16.51-.21.77-.07.38-.24.5-.57.29-.61-.39-1.14-.84-1.52-1.5-.5-.88-1.02-1.75-1.86-2.37-.13-.1-.22-.26-.29-.44.96.04,1.4.9,2.13,1.29.8.42,1.27,1.12,1.73,1.89Z"/>
          <path class="cls-7" d="m501.72,106.5c.55-.11,1.06-.21,1.58-.32.04,0,.1,0,.14-.01.7-.45.98.21,1.5.53-1.19.88-2.31,1.63-3.75.84,0-.14.02-.31,0-.46-.03-.18-.12-.34-.18-.51-.14.05-.29.11-.53.2.15-.46.41-.75.75-.75.18,0,.37.35.5.49Z"/>
          <path class="cls-7" d="m463.81,99.78c.12-.11.22-.2.39-.35-.16-.05-.26-.1-.36-.1-.07,0-.14.09-.21.09-.35-.04-.69-.11-1.04-.16.21-.32.42-.64.65-.95.04-.06.22-.07.3-.03.42.2.82.45,1.25.64.27.12.58.16.88.23.03-.05.05-.1.08-.15-.08-.11-.17-.23-.25-.34-.14-.22-.14-.45.12-.52.12-.03.41.11.43.22.11.45.36.51.76.42.13-.03.29.05.43.08-.07.19-.11.4-.21.57-.04.07-.2.1-.29.09-.73-.07-1.39.18-2.06.4-.28.09-.61.22-.88-.14Z"/>
          <path class="cls-7" d="m547.88,95.37c.35-.68.74-1.18,1.5-1.24.47-.04.85.18.89.64.03.4.22.48.57.46.24-.01.57-.11.54.34-.05.65-.13.75-.63.69-.7-.08-1.39-.18-1.99-.63-.22-.17-.56-.17-.87-.25Z"/>
          <path class="cls-7" d="m578.67,157.55c.34-.28.68-.53.98-.82.42-.41.83-.83,1.21-1.28.17-.21.34-.36.56-.18.1.08.14.38.07.49-.21.34-.29.78-.76.92-.11.03-.19.23-.23.37-.3.99-.9,1.19-1.82.5Z"/>
          <path class="cls-7" d="m469.18,100.68c.42-.33.89-.35,1.36-.28.05,0,.04.34.06.53-.04,0-.08,0-.13.01.17.24.36.48.51.73.14.23.04.39-.2.51-.44.22-.81.27-1.17-.17-.14-.18-.4-.26-.6-.39-.14-.1-.27-.21-.41-.32.03-.05.06-.09.09-.14.13.04.27.1.4.13.12.02.25,0,.38,0-.02-.14-.03-.29-.08-.42-.02-.07-.13-.11-.22-.19Z"/>
          <path class="cls-7" d="m487.49,114.87c0,.29-.11.68.03.86.15.19.55.18.89.28.11.36.24.78.37,1.18-.43-.1-.84-.21-1.26-.27-.42-.06-.84-.07-1.34-.11.42-.7.81-1.35,1.19-2,.04.02.08.05.12.07Z"/>
          <path class="cls-7" d="m508.13,112.9c-.05.27-.14.48-.12.67.06.52-.19.8-.66.95-.12.04-.23.09-.35.12-.19.03-.38.04-.57.07.03-.18.07-.37.07-.55,0-.23-.02-.47-.04-.8.37-.19.81-.43,1.27-.62.1-.04.28.13.38.18Z"/>
          <path class="cls-7" d="m568.8,99.25c.03-.13.06-.25.08-.38.03-.02.07-.05.09-.04.27.08.72-.07.74.33.02.43-.44.28-.68.33-.6.11-1.21.21-1.81.21-.21,0-.46-.25-.62-.45-.06-.07.05-.38.16-.45.18-.11.45-.18.64-.12.33.09.63.38.95,0,0,0,.23.12.28.22.05.1.01.24.01.36.05,0,.11,0,.16-.01Z"/>
          <path class="cls-7" d="m521.59,95.21c-.94,1.12-2.38.67-3.73.01.32-.12.54-.27.77-.27.79.02,1.58.08,2.37.14.18.01.35.07.59.12Z"/>
          <path class="cls-7" d="m469.38,99.54v-.52c-.69.1-1.29,0-1.61-.67.02-.05.05-.09.07-.14.13.06.29.08.37.18.32.43.7-.02,1.04.09.18-.52.58-.2.87-.2.58,0,.4.51.44.84.05.3-.14.44-.45.43-.23-.01-.45,0-.73,0Z"/>
          <path class="cls-7" d="m583.59,153.73c-.5.71-.9,1.27-1.32,1.85-.14-.41-.26-.75-.42-1.21.69-.69-.05-1.28-.52-1.91.05-.03.1-.06.14-.09.15.13.3.25.44.39.08.09.13.21.19.31.32.49.69.9,1.49.66Z"/>
          <path class="cls-7" d="m477.43,107.82c-.28-.12-.5-.21-.71-.31-.25-.11-.48-.12-.65.14-.19.29-.4.4-.71.14-.1-.08-.25-.1-.35-.14.07-.38.13-.74.22-1.08.03-.1.24-.24.28-.22.65.4,1.28.83,1.91,1.25.02.01,0,.06.01.22Z"/>
          <path class="cls-7" d="m557.54,141.02c-1.18.25-2.18-.02-3.18-.21-.13-.02-.29-.05-.38-.14-.12-.11-.18-.28-.27-.43.13-.03.29-.13.4-.09.67.24,1.34.3,2.05.34.43.03.85.31,1.39.52Z"/>
          <path class="cls-7" d="m559.44,137.7c.27.84.91.13,1.35.49-.73.14-.48.48-.27.85.13.23.19.5.28.75-.05.03-.09.06-.14.1-.3-.34-.61-.69-.98-1.11-.03.45-.05.8-.07,1.15-.04,0-.08-.01-.12-.02-.11-.34-.29-.68-.31-1.02-.01-.35.15-.71.26-1.19Z"/>
          <path class="cls-7" d="m460.28,98.61c.87-.43,1.53-1.34,2.7-1.1.08.36-.03.66-.39.84-.09.05-.24,0-.35,0-.14,0-.36-.04-.42.03-.45.53-1,.28-1.53.22Z"/>
          <path class="cls-7" d="m475.86,128.51c.95-.63,2.95-.19,4.14.98-.54-.04-1.01.15-1.41-.19-.72-.61-1.51-.92-2.46-.69-.06.01-.12,0-.18,0-.02,0-.04-.04-.09-.09Z"/>
          <path class="cls-7" d="m561.58,135.29c-.37-.17-.32-1.06-1.08-.6.67-.65-.16-1.15-.08-1.84.26.19.49.35.7.5-.07.23-.15.42-.18.61-.02.11.02.3.1.35.08.05.26,0,.36-.05.2-.13.38-.3.56-.45.52.39.39.99-.39,1.49Z"/>
          <path class="cls-7" d="m561.35,132.61c-.19-.12-.37-.23-.56-.35-.17-.1-.33-.21-.5-.31-.11.17-.21.31-.32.47-.13-.3-.32-.53-.32-.76,0-.49.08-.98.17-1.46,0-.05.34-.12.37-.07.13.18.34.49.27.6-.43.68-.43,1.13.45,1.38.18.05.28.34.42.51h.01Z"/>
          <path class="cls-7" d="m553.62,96.58c-.77.13-1.54.26-2.32.39.32-1.22,1.29-1.44,2.32-.39Z"/>
          <path class="cls-7" d="m469.83,97.13c-.76-.18-1.44-.34-2.1-.5q.22-.39-.42-.64c.22-.33.53-.22.76-.11.63.31,1.57.19,1.77,1.25Z"/>
          <path class="cls-7" d="m569.66,155.24h1.42c.08.3-.17.97-.46,1.14-.26.15-.45.05-.56-.19-.15-.31-.27-.64-.4-.95Z"/>
          <path class="cls-7" d="m482.43,130.04c-.45.1-.82.19-1.19.26-.13.02-.29.02-.4-.04-.12-.07-.29-.25-.27-.33.04-.14.2-.31.34-.34.56-.13,1.02.16,1.52.45Z"/>
          <path class="cls-7" d="m472.17,97.37c-.76.06-1.68-.22-1.88-.86.48-.16.94,0,1.2.41.08.12.2.22.32.3.1.07.24.1.36.15Z"/>
          <path class="cls-7" d="m529.29,94.7c.6-.13,1.19-.27,1.8-.39.08-.02.17.07.26.1-.05.09-.07.22-.14.25-.31.13-.62.31-.94.33-.34.01-.68-.14-1.02-.22l.06-.06Z"/>
          <path class="cls-7" d="m534.38,94.42c-.55.05-1.08.1-1.6.15l-.07-.1c.14-.1.28-.22.43-.3.13-.07.31-.07.43-.15.52-.35.64-.32.81.4Z"/>
          <path class="cls-7" d="m471.74,99.85c-.22-.07-.4-.09-.52-.19-.11-.09-.17-.27-.2-.42,0-.03.2-.15.32-.16.2-.02.44-.04.59.06.13.08.22.33.22.5,0,.08-.28.15-.41.21Z"/>
          <path class="cls-7" d="m543.51,133.84c.13.31.31.6.38.92.03.11-.18.28-.27.42-.14-.1-.38-.2-.39-.32-.04-.33.02-.66.05-.99.08-.01.16-.02.24-.04Z"/>
          <path class="cls-7" d="m572.09,99.66c-.7.14-1.28.08-1.81-.36.35-.21,1.5,0,1.81.36Z"/>
          <path class="cls-7" d="m464.15,97.36c.27-.4.64-.36,1-.31.08.01.18.12.2.2.02.08-.03.21-.1.27-.22.18-.84.09-1.1-.16Z"/>
          <path class="cls-7" d="m479.21,105.48c-.17-.23-.35-.42-.33-.45.14-.18.32-.35.52-.46.04-.02.34.27.32.3-.11.19-.28.35-.51.61Z"/>
          <path class="cls-7" d="m535.9,94.64c-.42.14-.79.25-1.17.37.43-.92.65-1.01,1.17-.37Z"/>
          <path class="cls-7" d="m571.38,140.1c.54-.22,1.07-.44,1.56-.64-.1.6-.96.99-1.56.64Z"/>
          <path class="cls-7" d="m569.1,100.86c-.69.13-.86.06-1.25-.51.35-.15,1.11.14,1.25.51Z"/>
          <path class="cls-7" d="m583.62,102.66c.3-.5.71-.49,1.12-.43.08.01.15.12.22.19-.08.08-.15.22-.24.22-.34.03-.69.01-1.11.01Z"/>
          <path class="cls-7" d="m560.36,127.33c-.16.48-.14.91-.55,1.19-.22-.52-.07-.89.55-1.19Z"/>
          <path class="cls-7" d="m562.5,141.03c-.53.33-.94.6-1.36.86-.03-.44.59-.89,1.36-.86Z"/>
          <path class="cls-7" d="m464.63,96.48c.26-.03.52-.07.78-.06.07,0,.13.19.2.29-.11.05-.22.14-.32.13-.21-.03-.41-.12-.61-.19-.02-.05-.03-.11-.05-.16Z"/>
          <path class="cls-7" d="m536.18,94.42c.24-.09.48-.2.73-.27.07-.02.17.07.26.1-.05.09-.08.24-.14.25-.26.05-.53.07-.8.09-.01-.06-.03-.12-.04-.18Z"/>
          <path class="cls-7" d="m485.63,160.69c.3-.06.59-.12.89-.16.05,0,.12.1.17.16-.07.06-.14.17-.22.18-.27.02-.54,0-.82,0-.01-.06-.02-.12-.03-.19Z"/>
          <path class="cls-7" d="m456.57,114.29c-.19-.27-.38-.54-.57-.81.06-.04.12-.08.17-.12.55.02.2.66.5.86-.03.02-.07.05-.1.07Z"/>
          <path class="cls-7" d="m534.29,95.01c-.29.04-.57.07-.92.12.19-.34.49-.41.9-.27l.02.15Z"/>
          <path class="cls-7" d="m530.53,103.66c.16.15.25.25.35.34-.11.08-.21.2-.34.23-.08.02-.19-.11-.28-.17.08-.11.15-.21.27-.39Z"/>
          <path class="cls-7" d="m560.56,137.43h-.86c.19-.28.43-.3.86,0Z"/>
          <path class="cls-7" d="m561.34,132.62c.15.08.39.13.43.24.04.16-.07.36-.11.54-.04-.01-.07-.03-.11-.04-.07-.25-.13-.5-.2-.75,0,0-.01.01-.01.01Z"/>
          <path class="cls-7" d="m557.98,141.12c.31-.02.63-.03.94-.05,0,.05,0,.1.01.16-.32.04-.63.07-.95.11,0-.07,0-.14,0-.22Z"/>
          <path class="cls-7" d="m562.86,137.58c-.34-.48-.3-.64.2-.72-.07.25-.12.45-.2.72Z"/>
          <path class="cls-7" d="m562.95,138.93h.83s0,.08.01.12c-.28.02-.55.04-.83.05,0-.06,0-.11-.01-.17Z"/>
          <path class="cls-7" d="m577.85,146.08c.26.2.52.4.78.6-.03.04-.06.08-.1.12-.26-.2-.52-.4-.77-.6.03-.04.06-.08.09-.12Z"/>
          <path class="cls-7" d="m476.83,108.38c-.17.08-.34.16-.51.22,0,0-.1-.19-.1-.2.16-.09.33-.17.5-.26.04.08.07.15.11.23Z"/>
          <path class="cls-7" d="m478.16,118.25c-.66-.07-.77.47-1.09.95-.28-.54-.51-.98-.74-1.43-.63.4-1.1.82-.88,1.65.03.12-.22.33-.34.49-.11-.15-.32-.31-.31-.46.02-.47.1-.94.22-1.4.03-.14.23-.29.38-.34.75-.26,1.52-.18,2.27-.07.19.03.35.3.52.46,0,.05-.01.11-.02.16Z"/>
          <path class="cls-7" d="m473.14,117.11c.64-.36,1.21-.69,1.79-1.02.06-.03.18-.07.22-.04.42.33.84.67,1.21,1.09-.55.04-1.05.48-1.58.03-.1-.08-.35-.02-.51.03-.36.12-.7.16-1.13-.1Z"/>
          <path class="cls-7" d="m478.37,119.39c-.42.17-.83.35-1.26.5-.08.03-.21-.11-.31-.17.08-.1.14-.25.24-.28.42-.1.84-.16,1.27-.23.02.06.04.13.06.19Z"/>
          <path class="cls-7" d="m459.16,115.5c.86.22,1.49.69,1.16,1.29-.39-.44-.77-.87-1.16-1.29Z"/>
          <path class="cls-7" d="m478.31,118.79c.41-.1.83-.21,1.29-.32-.16.54-.24.57-1.24.48-.02-.05-.03-.11-.05-.16Z"/>
          <path class="cls-7" d="m477.04,94.68c.54-.22,1.02-.42,1.51-.61-.18.52-.85.75-1.51.61Z"/>
          <path class="cls-7" d="m474.92,96.9c.13.01.27,0,.39.05.11.05.19.16.29.24-.13.03-.27.11-.39.08-.13-.03-.23-.16-.34-.24.02-.04.04-.08.06-.12Z"/>
          <path class="cls-7" d="m475.46,100.9c.04.38.07.75.12,1.19-.44-.13-.51-.4-.49-.66,0-.2.12-.4.19-.6.06.02.13.05.19.07Z"/>
          <path class="cls-7" d="m517.02,121.5c-.18.18-.35.37-.56.59-.26-.15-.54-.32-.82-.48l.04-.11c.45,0,.9,0,1.35,0,0,0,0,0,0,0Z"/>
          <path class="cls-7" d="m514.38,119.98c0,.3.02.56,0,.82,0,.07-.15.2-.2.19-.1-.02-.23-.12-.24-.2-.05-.31-.11-.65.45-.8Z"/>
        </g>
        <g>
          <path class="cls-7" d="m416.46,117.19c-.05.06-.15.21-.26.34.41.65.42.67-.09,1.31-.5.62-1.03,1.21-1.56,1.79-.13.14-.33.22-.52.28-.63.21-1.27.41-1.91.61-.25.08-.35.19-.34.49.02.32.06.76-.47.79-.1,0-.27-.06-.3-.13-.03-.08.06-.21.12-.31.03-.05.12-.05.15-.1.12-.18.24-.36.35-.55-.24-.1-.57-.35-.7-.27-.39.23-.73.58-1.03.92-.07.08-.02.37.08.5.2.28.5.5.7.79.23.33.49.67.59,1.05.19.7.06.86-.54,1.25-.36.23-.68.51-1.01.76-.56-.8-1.32-1.4-2.23-1.91-.16.47-.31.89-.45,1.32-.02.07-.03.17,0,.22.34.44.39,1.05.96,1.35.53.27.96.63.91,1.35-.02.29.17.59.29.97-.73-.27-1.23-.64-1.44-1.31-.17-.57-.28-1.17-.85-1.53-.08-.05-.13-.22-.11-.33.16-.87.02-1.71-.25-2.53-.08-.25-.16-.5-.24-.75-.23.12-.45.24-.68.36-.11.05-.22.1-.35.16-.03-.1-.08-.17-.07-.23.15-.7-.16-1.2-.64-1.67-.21-.2-.3-.52-.47-.77-.07-.1-.22-.23-.31-.22-.56.12-1.11.28-1.65.43-.17.18-.34.39-.54.57-.54.48-1.05,1.03-1.67,1.38-.66.37-.77.84-.72,1.51.05.67-.07,1.32-.69,1.75-.22.15-.43.24-.56-.08-.49-1.2-1.01-2.4-1.44-3.63-.19-.54-.18-1.14-.26-1.65-.28.09-.6.24-.92.25-.14,0-.29-.29-.49-.49.2-.06.3-.09.4-.11-.02-.03-.02-.07-.04-.08-.42-.32-.88-.6-1.26-.97-.2-.19-.34-.26-.62-.25-.97.02-1.93-.01-2.9-.04-.29,0-.53-.09-.6-.44-.01-.08-.24-.19-.34-.16-.93.23-1.63-.03-2.14-.83-.07-.12-.13-.24-.2-.36-.23-.39-.55-.24-.85-.11-.34.14-.18.38-.06.57.29.45.58.9.9,1.33.15.2.38.35.54.56.77.33,1.35-.06,1.91-.7-.11.72.31.87.79,1.06.62.24.66.5.25,1-.44.52-.74,1.18-1.41,1.48-.28.12-.57.22-.84.36-.21.1-.4.24-.6.37-.14.09-.25.23-.4.29-.93.35-1.87.68-2.81,1.02-.21.08-.55.09-.45.45.09.33.34.52.69.47.36-.05.72-.14,1.08-.21.49-.09.99-.18,1.53-.28-.03.19-.02.37-.09.51-.57,1.26-1.14,2.5-2.31,3.37-.76.57-1.41,1.27-2.08,1.95-.74.75-.53,2.28-.1,3.06.18.33.2.76.24,1.14.11,1.1,0,1.19-.95,1.72-.52.29-.96.71-1.42,1.09-.07.06-.08.25-.06.37.04.24.14.47.2.71.2.77.12.94-.64,1.19-.27.09-.37.2-.34.48.06.51-.14.92-.47,1.29-.27.31-.5.66-.77.97-.68.79-1.54,1.18-2.58,1.23-.43.02-.85.09-1.28.16-.54.09-.91-.17-.88-.7.04-.77-.36-1.38-.76-1.93-.37-.52-.59-1.06-.62-1.64-.05-.89-.35-1.66-.81-2.4-.52-.83-.42-1.99.24-2.72.25-.28.28-.51.15-.86-.14-.38-.14-.81-.24-1.21-.2-.81-.59-1.5-1.25-2.03-.34-.27-.43-.58-.29-1.02.11-.33.13-.69.15-1.04.02-.47-.32-.8-.8-.81-.14,0-.28-.02-.41,0-.36.07-.55-.05-.7-.4-.08-.18-.34-.31-.55-.4-.12-.06-.3-.02-.45.02-1.1.23-2.15.71-3.31.53-.13-.02-.29.02-.4.09-.53.35-.94.11-1.35-.24-.26-.22-.58-.36-.82-.59-.25-.23-.44-.52-.66-.78-.32-.38-.63-.78-.99-1.14-.22-.22-.24-.44-.28-.74-.08-.68.29-1.23.32-1.84.02-.41-.17-.83-.22-1.26-.03-.23-.03-.49.07-.69.25-.51.56-.99.85-1.47.27-.45.59-.84,1.1-1.07.5-.23.82-.57.78-1.21-.04-.55.34-.92.84-1.16.34-.16.57-.41.55-.82-.02-.54-.21-.71-.75-.68-.09,0-.18,0-.27,0-.13-.51-.27-.99-.04-1.54.11-.28-.01-.66-.05-.99-.04-.34.03-.53.43-.49.75.06,1.51.07,2.26.12.28.02.41-.07.47-.36.22-1.04-.15-1.67-1.19-1.96-.07-.02-.13-.06-.2-.09,0-.05-.02-.1-.02-.15.22-.04.44-.12.66-.11.24,0,.46.08.55-.24.02-.06.14-.13.22-.13.58.02.91-.33,1.21-.76.08-.12.28-.15.41-.25.22-.17.51-.31.62-.54.19-.4.45-.62.89-.7.36-.06.7-.18,1.06-.27-.03-.57-.64-.99-.32-1.54.13-.22.44-.33.67-.49.05.03.09.06.14.08-.03.45-.07.89-.09,1.34-.02.5.25.68.73.49.27-.11.52-.28.74.08.04.06.23.06.33.02.28-.09.55-.2.82-.31.3-.13.58-.18.92-.04.42.18.89-.18.93-.65.02-.26.02-.52.08-.78.06-.23.2-.39.47-.22.24.14.57.41.75.09.1-.16-.15-.53-.26-.8-.02-.05-.07-.09-.13-.15.28-.39.71-.41,1.08-.38.5.05.94-.04,1.36-.37-.29-.31-.66-.34-1.04-.26-.35.07-.68.18-1.03.26-.51.13-.73.04-.89-.44-.13-.4-.21-.83-.26-1.25-.01-.13.15-.3.27-.41.49-.43.99-.85,1.5-1.28-.41-.38-1.23-.48-1.56-.22-.12.09-.2.28-.21.43-.05.5-.29.79-.76.98-.46.19-.82.5-.99,1.02-.15.45-.1.77.32,1.01.12.07.22.16.36.26-.1.12-.18.26-.29.35-.47.34-.85.7-.64,1.36.03.09-.08.28-.17.34-.34.2-.7.4-1.07.54-.32.12-.66.17-1.02.25-.08-.28-.13-.53.32-.42.29.07.4-.1.32-.33-.21-.57-.46-1.13-.72-1.68-.02-.04-.25-.04-.34.01-.24.13-.45.32-.69.45-.58.32-1.05.14-1.16-.5-.31-1.75-.53-1.49,1.06-2.41.81-.47,1.41-1.09,1.89-1.87.22-.36.58-.63.85-.96.1-.12.13-.31.16-.47.03-.15,0-.31,0-.47.18.05.36.1.66.18,0-.01.06-.15.16-.26.21-.23.44-.64.65-.63.79.02,1.38-.48,2.08-.66.26-.06.48-.25.77-.02.1.08.36,0,.53-.05.49-.14.92.04,1.49.21-.24.2-.39.33-.55.46,0,0,.02.06.03.05.76-.03,1.44.35,2.17.46.91.14,1.65.65,2.4,1.11.32.19.29.51,0,.67-.3.17-.68.34-1.01.31-.56-.04-1.1-.24-1.66-.37-.23-.06-.46-.12-.71-.18.01.1,0,.15.02.15.58.22.87.63.96,1.25.06.43.79.74,1.36.59-.22-.18-.39-.32-.65-.53.16-.06.28-.14.39-.13.19.02.38.11.57.17.34.1.58.09.51-.39-.04-.31.6-.74,1.03-.72.22.01.45.04.71.07-.05-.4-.12-.75-.13-1.09,0-.18-.14-.49.23-.49.3,0,.62.04.7.42-.04.05-.06.08-.08.1-.16.11-.31.21-.47.31.07.09.13.24.22.26.25.05.69.16.75.05.38-.58,1-.69,1.55-.92.33-.14.67-.28,1.03-.43.02.15.04.31.06.47.57-.11,1.12-.23,1.66-.32.15-.02.34-.01.46.06.23.16.42.18.59-.06.18-.26.14-.49-.14-.66-.22-.14-.45-.26-.68-.4.02-.04.04-.08.06-.12l4.15,1.35s.08-.06.12-.1c-.1-.16-.17-.39-.32-.48-.51-.31-.48-.82-.52-1.3,0-.07.03-.2.07-.21.78-.25.79-1.15,1.35-1.59.03-.03.07-.05.14-.11.12.34.23.68.66.7.01,0,.02.31.01.47-.01.21-.06.43-.06.64.01.38.03.76.09,1.13.03.23.14.45.21.68.03.11.09.23.07.33-.15.58-.8,1.02-1.4.97-.08,0-.17,0-.35,0,1.44.56,2.27.03,2.38-1.39.73-.31,1.03.17,1.26.82.19-.69.02-.96-.55-1.02-.18-.02-.37-.02-.55-.02-.47,0-.67-.25-.48-.67.14-.32.18-.54-.11-.81-.21-.18-.15-.45.14-.54.33-.11.49-.29.52-.66.04.12.11.25.1.37-.09.79-.08.81.73.81.04,0,.08,0,.14,0-.15-.05-.33-.06-.39-.15-.06-.1-.06-.35,0-.39.42-.27.84-.5,1.36-.2.31.18.67.3.93.42.08.36.16.68.23.99.05,0,.1,0,.15-.01.04-.07.13-.15.11-.21-.15-.52-.23-1.06-.83-1.35-.21-.1-.3-.44-.41-.69-.01-.02.23-.22.36-.23.81-.07,1.62-.12,2.47-.17-.15-.21-.31-.42-.55-.74.56-.22,1.05-.44,1.55-.6.5-.15,1.01-.27,1.53-.35.37-.06.76,0,1.13-.04.39-.04.78-.1,1.15-.22.37-.12.73-.2.95-.66.27-.55.93-.6,1.42-.23.18.14.36.3.56.4.17.09.38.17.58.16.72-.03,1.45-.13,2.05.43.39.37.4.62-.09.88-.9.47-1.81.89-2.72,1.33-.04.02-.08.05-.1.12.6.09,1.17.09,1.72-.27.14-.09.36-.15.52-.12.53.11,1.05.22,1.61.14.5-.07.97-.03,1.48.26.47.27,1.16.19,1.75.23.07,0,.18-.21.22-.34.08-.23.17-.31.44-.26.31.06.64.05.96.06.65.01.86.25.77.89-.07.52.25,1.03.76,1.12.13.02.36-.09.43-.2.18-.31.32-.58.7-.23.03.03.08.05.13.05.81,0,1.62,0,2.42,0,.07-.78.28-.99,1.01-.96.49.02.97.13,1.46.19.34.04.69.05,1.04.1.15.02.32.08.44.18.13.11.17.36.29.4.55.17,1.02.55,1.66.46.57-.08,1.16-.07,1.74-.07.38,0,.61.17.7.58.13.54.29.59.82.48.33-.07.67-.08,1-.09.57-.02,1.14-.02,1.67-.03.17.18.35.41.58.59.07.06.27.03.37-.04.05-.03.04-.22,0-.33-.15-.52-.16-.48.43-.45,1.53.08,2.97.43,4.29,1.24.52.32,1.21.49,1.12,1.32.09-.01.12-.01.14-.02.18-.12.1-.59.47-.44.43.17.83.43,1.23.66.01,0-.06.24-.1.24-.56.03-.79.41-.92,1.02-.42-.26-.77-.48-1.13-.69-.16-.1-.36-.25-.52-.23-.4.07-.65-.04-.82-.4-.02-.05-.09-.07-.15-.11-.24.3.09.86-.44.98-.36.08-.74.07-1.01.09.24.34.52.72.78,1.11.05.08.06.26,0,.33-.04.06-.23.07-.32.03-.39-.16-.75-.08-1.1.11-.68.38-1.36.76-2.05,1.12-.13.07-.34.07-.47,0-.28-.15-.51-.17-.82-.02-.29.14-.65.19-.98.21-.4.03-.75.06-.91.52-.07.19-.25.33-.31.4.18.45.33.8.48,1.16q-.59.29-.61,1.04c-.46-.1-.66.21-.88.54-.31.47-.66.91-1.13,1.36-.13-.57-.29-1.13-.38-1.71-.19-1.19.06-1.55,1.07-2.22.76-.5,1.45-1.13,2.11-1.77.23-.22.27-.62.4-.94-.04-.03-.08-.07-.12-.1-.5.42-1,.85-1.5,1.27-.07-.05-.12-.06-.15-.1-.12-.18-.21-.49-.35-.51-.41-.05-.86-.14-1.22.23-.23.24-.49.47-.74.69-.22.19-.47.37-.07.67-.45.06-.82.11-1.19.16-.11-.44-.42-.6-.86-.54-.68.09-1.36.18-2.04.19-.59,0-1.06.12-1.48.57-.55.58-1.17,1.09-1.77,1.62-.18.16-.4.26-.64.41.36.28.71.54,1.06.81q.85-.4,1.6.53c.15-.2.29-.39.47-.63.17.89.32,1.69.48,2.5-.73.41-.76.55-.32,1.46-.16.02-.3.04-.51.07,0-.5,0-.97,0-1.44,0-.41.03-.83,0-1.24,0-.13-.13-.25-.2-.37-.11.11-.23.22-.34.33-.02.02-.02.06-.01.09.14.9-.37,1.55-.88,2.18-.47.57-.97,1.11-1.47,1.65-.24.26-.55.41-.91.25-.43-.18-.72.05-.96.33-.37.44-.72.9-1.11,1.4.14.21.38.51.56.84.37.66.23,1-.49,1.23-.17.05-.34.12-.54.19v-1.46c-.18-.02-.34-.05-.48-.07-.02-.06-.04-.08-.05-.11-.05-.24-.09-.48-.13-.72-.31.06-.62.11-.92.19-.11.03-.2.12-.39.24.08-.34.14-.6.2-.87-.04-.04-.07-.07-.11-.11-.59.37-1.19.74-1.82,1.13.26.23.54.49.8.71.4-.04.77-.08,1.15-.12l.02.12c-.32.22-.64.43-.96.65-.27.18-.32.37-.08.64.34.4.64.83,1.03,1.33Zm-43.44-3.01h0c-.02-.28.05-.61-.07-.83-.13-.23-.43-.38-.68-.52-.69-.37-1.33-.78-1.7-1.5-.17-.32-.39-.33-.67-.14-.54.35-1.1.61-1.77.35-.24-.09-.36.01-.33.26.05.47-.15.72-.61.87-.51.16-.83.49-.81,1.09,0,.17-.12.38-.25.51-.38.41-.85.63-1.43.63-.11,0-.24.13-.34.23-.02.01.06.19.11.2.57.08,1.12.27,1.71.01.57-.25,1.17-.47,1.78-.56.85-.13,1.71-.13,2.57-.17.09,0,.26.05.27.1.05.31.18.68.06.92-.21.43-.04.61.29.74.24.1.5.12.75.19.27.08.6.13.78.31.22.24.42.41.75.44.19.02.38.11.56.2.61.3.6.31.74-.36.1-.49.52-.69.97-.53.83.29,1.68.55,2.53.81.15.04.37.04.48-.04.34-.22.65-.18,1-.07.57.17.8.06.98-.37.15-.35.34-.7.4-1.07.05-.31-.05-.65-.08-.97-.28.05-.55.1-.83.15-.13.02-.3.12-.38.06-.36-.25-.69-.46-1.11-.13-.03.02-.09.01-.13,0-.86-.05-1.55-1.1-1.3-1.89.32-.03.62-.04.91-.1.24-.05.46-.16.7-.24.23-.08.46-.16.7-.22.25-.07.5-.18.74-.16.38.03.74.19,1.12.25.48.08.97.18,1.45.15.21-.02.48-.31.57-.55.06-.13-.13-.45-.3-.57-.47-.36-.98-.67-1.48-1.01.19-.31.4-.65.67-1.11-.5.12-.88.17-1.24.31-.17.06-.38.26-.4.41-.02.17.17.36.25.51-.09.02-.29.03-.47.09-.35.13-.41-.01-.52-.33-.09-.25-.39-.47-.64-.62-.09-.05-.37.1-.47.23-.29.35-.57.73-.81,1.12-.28.45-.6.92.12,1.42-.41.1-.74.29-.99.21-.67-.21-1.11.15-1.66.43.27.25.5.47.72.68-.24.31-.46.59-.73.93-.17-.31-.31-.53-.42-.76-.43-.99-.68-1.14-1.84-1.09.22.43.16.8-.24,1.08Zm15.9-1.36s.01-.09.02-.14c-.14-.11-.28-.22-.41-.32-.36-.28-.73-.55-1.08-.84-.3-.25-.28-.48.08-.67.18-.09.36-.18.51-.31.09-.08.17-.23.17-.34,0-.07-.16-.16-.26-.21-.09-.05-.21-.06-.31-.07-.85-.08-1.36.54-1.97.95-.06.04-.01.25.01.38.14.65.46,1.2.93,1.65.17.17.21.31.07.52-.08.11-.11.25-.18.37-.22.34-.1.57.22.74.09.05.18.11.28.16.48.25,1.37.31,1.47.05.2-.48.11-.95-.21-1.38-.09-.12-.11-.28-.15-.4.32-.05.57-.1.82-.14Zm-8.83,6.05c.42.77.79,1.57,1.28,2.3.21.31.34.57.37.93.03.26.21.51.33.76.13.25.27.49.4.74.07.13.1.31.2.4.47.4.96.78,1.47,1.19.03-1.22-.43-2.21-1.2-3.06-.3-.34-.54-.65-.48-1.13.01-.09-.02-.22-.08-.3-.4-.56-.83-1.09-1.21-1.66-.26-.4-.53-.58-1.08-.17Zm-5.87-5.84c.21-.56.15-.79-.3-1.02-.64-.32-1.24-.67-1.62-1.3-.04-.06-.1-.15-.16-.15-.23,0-.45.01-.68.02.04.2.04.42.14.59.12.21.32.37.48.55.57.67,1.31,1.05,2.14,1.31Z"/>
          <path class="cls-7" d="m299.78,105.49c.56-.31,1.06-.57,1.54-.85.46-.27.78-.63.81-1.25-.63-.04-1.25-.07-1.9-.11-.01-.1-.03-.21-.03-.31-.01-.35-.04-.64-.49-.3-.08.06-.25.05-.35.01-.34-.11-.71-1.12-.52-1.42.2-.32.38-.67.87-.6.14.02.3-.06.44-.11.6-.2.65-.31.38-.96-.94.21-1.91.52-2.61-.56.35-.16.73-.33,1.12-.49.07-.03.21,0,.26.04.5.5.96.16,1.41-.02-.78-.46-1.55-.93-2.45-1.46.3-.11.51-.22.72-.25.35-.04.57-.22.78-.49.2-.26.49-.5.79-.64.57-.26,1.17-.44,1.76-.65.03-.01.06-.04.08-.04.6.15,1.19.31,1.79.46.1.03.2.08.3.09,1.11.12,2.24.18,3.34.35.73.12,1.45.37,2.16.6.42.14.82.42,1.18-.1.05-.07.19-.06.3-.09.47-.12.94-.21,1.4-.36.21-.06.36-.16.5.09.04.07.22.12.3.08.2-.09.38-.23.62-.38.19.24.42.52.68.85.2-.21.37-.4.57-.61.13.44.41.35.74.23.17-.06.42-.11.57-.03.79.38,1.62.56,2.49.6.1,0,.2.04.29.06,0,.06.02.09.01.12-.25.62-.22.66.49.65.2,0,.41,0,.59-.06.66-.19,1.21,0,1.74.45-.06-.17-.15-.34-.17-.52-.02-.18-.02-.45.08-.53.14-.1.39-.09.58-.06.17.03.33.16.48.26.73.44,1.54.49,2.36.44.34-.02.37-.27.38-.48,0-.18-.13-.36-.23-.59.27-.38.69-.46,1.09-.09.1.09.08.32.08.49,0,.34-.04.67-.07,1.07.35-.38.63-.66.89-.96.18-.21,0-.77-.27-.83-.66-.16-.9-.74-.47-1.26.26-.32.26-.59.18-.97-.18-.85-.02-1.21,1.04-1.09.31.04.62.1.96.15-.3.76-1.09.79-1.63,1.2.42.63,1.13,1.09,1.01,2.03.72-.14.53.54.77.97.11-.19.15-.32.25-.4.11-.09.3-.19.4-.15.11.04.19.23.23.37.03.09-.09.22-.06.3.06.18.18.33.27.49.13-.1.26-.19.38-.29.05-.05.07-.15.13-.17.37-.18.37-.48.31-.82-.02-.11-.01-.24-.02-.4.6-.01,1.13.07,1.51.54.06.08.07.33.01.36-.31.18-.2.38-.04.56.29.31.2.51-.13.73-.51.35-1.01.59-1.59.13-.14.34-.24.65-.4.91-.21.35-.39.79-.95.71-.07-.01-.16.01-.21.06-.49.43-1.04.81-1.43,1.32-.3.39-.4.94-.55,1.43-.03.11.12.39.2.39.61.04.76.42.75.96.24,0,.46-.05.66,0,.39.11.79.24,1.15.43.63.34,1.25.67,1.98.66.28,0,.32.15.34.38.04.6.24,1.15.68,1.57.13.13.46.22.58.15.16-.1.29-.38.28-.59,0-.31-.12-.63-.21-.94-.07-.27-.02-.41.28-.51.75-.26,1.02-.75.76-1.41-.11-.27-.39-.47-.62-.74.55-.48.19-1.14.14-1.75-.04-.49-.05-.53.46-.43.11.02.21.06.32.05.75-.05,1.33.25,1.98.63.51.3.67.5.63,1.05-.04.5.5.63.82.73.2.06.57-.26.78-.48.17-.17.21-.46.3-.69.38.55.75,1.08,1.12,1.62.04.06.1.14.1.2-.04.84.67,1,1.19,1.34.36.24.73.5,1.03.81.29.3.09.72-.31.87-.38.14-.73.36-1.1.52-.25.11-.51.19-.77.25-.16.03-.34.02-.5-.01-1.54-.29-2.55.43-3.25,1.75.8-.55,1.51-1.34,2.65-1.01,0,.09,0,.14-.02.18-.45.85-.4.96.56,1.22.35.09.7.31,1.01-.08.02-.03.17.05.26.07-.04.1-.05.27-.12.3-.31.14-.64.22-.95.35-.32.13-.63.3-.95.43-.11.05-.24.05-.36.07,0-.13-.04-.3.03-.38.13-.17.32-.3.54-.49-.12-.01-.2-.05-.25-.02-.59.27-1.16.57-1.75.81-.48.2-.6.52-.49.99.02.09.02.18.03.31-.16.01-.29.02-.42.04-.46.07-.87.16-1.07.71-.11.31-.37.61-.64.83-.26.21-.28.41-.19.68.11.31.02.49-.28.67-.5.3-.97.65-1.41,1.03-.53.44-.56.73-.31,1.38.14.36.29.71.36,1.09.04.21-.08.44-.12.67-.17-.14-.4-.24-.5-.41-.18-.33-.31-.7-.42-1.06-.1-.32-.23-.52-.62-.44-.15.03-.33-.06-.49-.08-.53-.07-1.05-.13-1.62-.2,0,.66-.35.63-.75.51-.85-.27-1.58-.03-2.2.56-.14.13-.25.35-.28.54-.07.45-.05.92-.11,1.37-.11.73.1,1.35.54,1.93.28.37.6.56,1.06.5.2-.02.4-.05.6-.05.43,0,.67-.16.77-.64.13-.61.44-.71,1.4-.59-.25.78-.5,1.55-.75,2.36.54,0,.98,0,1.42,0,.72.02.83.16.73.86-.02.14,0,.29-.06.41-.25.61.01,1.02.48,1.38.28.22.56.29.84.1.43-.28.78-.15,1.14.11.4.29.59.27.77-.19.18-.45.45-.68.93-.76.28-.05.52-.26.81-.41v.57c.16-.07.28-.11.39-.17.28-.17.53-.22.75.11.07.1.25.16.39.18.3.06.61.1.91.13.13.01.3.03.39-.03.28-.19.53-.13.82-.01.17.07.38.01.59.01-.31.5.05.63.48.76.17.05.35.19.46.34.35.45.74.7,1.36.67.99-.05,1.53.35,1.9,1.27.13.31.18.66.37.93.14.2.43.38.67.42.56.1,1.02.35,1.5.64.38.23.91.28,1.38.31.5.04.92.19,1.3.51.18.15.4.29.63.36.57.16.88.74.65,1.32-.08.19-.21.37-.35.53-.33.4-.71.77-1.01,1.19-.16.22-.29.52-.28.78.05,1.22-.42,2.24-1.1,3.2-.11.15-.35.28-.53.29-.84.04-1.51.47-2.17.92-.13.09-.25.32-.22.46.14.87-.41,1.38-.92,1.94-.23.25-.41.56-.59.85-.65,1.07-1,1.34-2.24.84-.11-.04-.22-.08-.43-.17.25.31.46.52.6.76.4.7.22,1.16-.56,1.4-.22.07-.44.13-.67.17-.22.03-.45.03-.63.04-.12.36-.15.8-.37.95-.22.15-.64-.01-.97-.03-.04.04-.07.08-.11.13.18.22.35.44.52.65-.12.19-.25.46-.43.7-.17.24-.35.5-.59.66-.47.33-.5.57-.03.9.15.1.3.2.46.3-.39.45-.73.89-1.12,1.29-.4.42-.34.91-.06,1.44.29.54.71.96,1.37,1.1-.64.46-2.12.37-2.57-.17h.68c.06-.41.11-.79.17-1.19-.59.09-.75.55-.92,1.01-.66-.02-.86-.55-1.04-.99-.2-.47-.16-1.04-.36-1.5-.26-.59.5-.84.32-1.38-.12-.04-.26-.09-.36-.13.12-.32.22-.64.38-.94.04-.08.25-.06.42-.09.09-.38.19-.82.31-1.33-.1-.02-.22-.07-.3-.03-.06.03-.08.17-.09.27-.02.17-.02.34-.03.51-.07,0-.14,0-.21,0,.03-.42.05-.84.09-1.26.04-.39.08-.79.14-1.18.04-.24.09-.49.2-.69.47-.87.74-1.77.71-2.77-.01-.45.14-.91.18-1.36.08-1.22.15-2.44.19-3.66,0-.16-.14-.39-.28-.49-.41-.3-.84-.57-1.28-.81-.48-.26-.74-.63-.97-1.15-.44-.98-.82-2.02-1.63-2.81-.42-.41-.39-.75.06-1.1.07-.05.12-.13.18-.19-.38-.62-.35-.98.13-1.53.14-.16.26-.35.43-.48.83-.6.76-1.88.16-2.58-.3-.35-.43-.37-.67.01-.05.09-.09.19-.19.39-.7-.36-1.37-.7-2.03-1.06-.07-.04-.08-.19-.1-.28-.11-.47-.7-1.02-1.17-1.11-.78-.14-1.53-.32-2.08-.97-.12-.15-.45-.14-.69-.17-.4-.04-.83.04-1.2-.1-.82-.3-1.61-.68-2.4-1.06-.38-.19-.63-.43-.56-.97.04-.31-.23-.72-.46-.99-.63-.73-1.34-1.39-1.99-2.11-.25-.28-.42-.62-.62-.94-.06-.1-.07-.27-.15-.33-.16-.1-.35-.13-.53-.19-.03.16-.14.37-.07.47.36.58.77,1.13,1.16,1.7.16.24.29.49.44.73l-.14.12c-.11-.12-.3-.22-.32-.36-.08-.46-.33-.7-.76-.8-.26-.06-.41-.19-.26-.5.05-.1.02-.32-.05-.38-.59-.43-.7-1.14-1.07-1.69-.16-.24-.4-.51-.65-.59-.54-.16-.85-.51-1.11-.96-.23-.39-.5-.77-.75-1.15-.46-.7-.42-1.49-.39-2.27.02-.47.14-.95.12-1.42-.04-.82-.53-1.36-1.25-1.73-.29-.15-.47-.3-.26-.72.08-.16-.19-.69-.42-.79-.5-.23-.63-.63-.78-1.07-.08-.23-.21-.45-.32-.67l-.11.04c.01.13.02.27.03.42-.34.06-.63.08-.72-.35-.01-.06-.04-.12-.09-.16-.86-.65-1.53-1.56-2.53-2.03-.2-.1-.44-.11-.66-.17-.75-.2-1.51-.37-2.25-.6-.37-.12-.6-.2-.57.32,0,.08-.05.2-.1.23-.39.15-.8.29-1.23.44-.02-.52.18-.88.6-1.13-.02-.03-.05-.07-.07-.1-.2.1-.43.17-.6.31-.27.23-.52.48-.74.76-.11.14-.14.34-.21.51.15.05.31.09.46.14.07.02.14.05.23.08-.06.4-.32.59-.66.66-.02,0-.12-.35-.2-.62-1.07.66-1.97,1.65-3.46,1.68Zm34.38,5.44c0-.05.01-.11.02-.16-.17-.16-.33-.43-.52-.46-.76-.11-1.53-.19-2.27.07-.15.05-.34.2-.38.34-.11.46-.19.93-.22,1.4,0,.15.2.31.31.46.12-.17.37-.37.34-.49-.22-.82.25-1.25.88-1.65.23.45.46.9.74,1.43.33-.48.44-1.02,1.09-.95Zm-5.02-1.14c.42.25.76.22,1.13.1.16-.05.41-.11.51-.03.53.44,1.03,0,1.58-.03-.37-.42-.79-.76-1.21-1.09-.04-.03-.15,0-.22.04-.58.33-1.16.66-1.79,1.02Zm5.23,2.28c-.02-.06-.04-.13-.06-.19-.42.07-.85.13-1.27.23-.1.02-.16.18-.24.28.11.06.24.2.31.17.43-.14.84-.33,1.26-.5Zm-19.21-3.89c.38.43.76.85,1.16,1.29.33-.6-.3-1.07-1.16-1.29Zm19.15,3.29c.02.05.03.11.05.16.99.09,1.08.06,1.24-.48-.46.12-.87.22-1.29.32Z"/>
          <path class="cls-7" d="m344.57,86.19c.08-.2.14-.34.21-.52.35.14.69.27,1.07.42-.04-.27-.07-.45-.12-.71.82.26,1.55.48,2.28.71l.04-.1c-.17-.07-.35-.11-.51-.2-.11-.07-.2-.19-.3-.28.11-.04.22-.1.33-.13.13-.03.26-.04.47-.07-.12-.15-.2-.24-.36-.43.66-.02,1.23-.03,1.8-.05.09,0,.19,0,.27-.04.36-.16.69-.11,1.02.22.03-.55.41-.5.75-.53,1.2-.09,2.4-.19,3.58.12.46.12.89.31,1.35.46.16.05.33.07.49.11.21.05.42.11.62.24-1.04.47-2.16.2-3.22.52.16,0,.33-.02.49,0,.51.07,1.01.17,1.51.24.2.02.42.02.6-.05.26-.1.56-.4.76-.04.19.33-.12.55-.4.71-.06.04-.11.09-.19.15.36.08.52,0,1.42-.61.4.27.77.28,1.21,0,.64-.41,1.26.03,1.9.09l.03.14c-.48.21-.98.4-1.44.65-.46.26-.89.58-1.35.89-.02-.07,0-.18-.05-.21-.14-.1-.3-.17-.46-.25-.03.14-.14.36-.08.42.4.45.15.68-.23.92-.15.09-.26.26-.35.42-.15.25-.14.44.21.54.33.09.66.23.93.42.09.06.01.36.01.63-.48-.5-.78-.5-1.55-.05.24.11.44.19.64.3.16.09.33.18.45.31.21.22.19.41-.15.48-.14.03-.27.07-.42.12.05.08.06.12.09.13.18.1.37.2.56.3-.27.31-.51.66-.82.92-.13.11-.41.05-.63.06,0,.02,0,.07,0,.08.22.13.53.25.33.58-.19.32-.43.02-.64-.02-.13-.03-.25-.1-.37-.16-.02.03-.04.06-.07.09.16.11.32.22.47.33.21.17.47.31.61.53.1.15.04.41.04.61-.23-.02-.48.01-.67-.08-.23-.11-.39-.34-.59-.5-.07-.06-.19-.07-.27-.09-.28.24.35.73-.37.8.54.11.99.2,1.49.31-1.03.89-2.18,1.22-3.44,1.27-.19,0-.4.17-.55.31-.38.35-.7.76-1.11,1.07-.22.17-.57.22-.86.23-.69.02-1.19.43-1.23,1.1-.02.31-.08.55-.35.75-.13.1-.18.3-.24.47-.13.37-.23.76-.36,1.13-.09.24-.28.33-.51.16-.4-.28-.78-.59-1.33-.49-.11.02-.3-.16-.38-.29-.49-.74-.95-1.49-1.42-2.25-.29-.46-.72-.86-.66-1.46.03-.32.16-.63.26-.94.01-.04.13-.07.2-.07.63-.01.8-.28.55-.97-.19.11-.37.2-.54.31-.27.18-.58.24-.78-.03-.11-.14-.14-.44-.06-.61.14-.31.43-.34.74-.19.2.09.41.14.64.15-.4-.66-.92-1.04-1.77-.64-.05-.32-.1-.56-.11-.8-.04-.79-.43-1.41-.87-2.03-.63-.88-1.54-1.03-2.51-1.04-.32,0-.65,0-.96.08-.58.13-1.08.13-1.46-.43-.1-.14-.33-.19-.64-.36.76-.09,1.38-.17,2.01-.25l.03-.17c-.94.06-1.8-.1-2.58-.57,0-.06-.01-.11-.02-.17.79-.2,1.58-.44,2.38-.58.64-.11.71-.11.88-.82-.33-.05-.65-.1-.97-.15-.01-.05-.02-.1-.03-.15.22-.12.42-.27.65-.36.43-.17.86-.33,1.3-.45.3-.08.61-.1.59-.54,0-.07.21-.19.33-.21.18-.03.36,0,.51-.07.2-.09.41-.28.59-.26.56.06,1.3-.59,1.64.47Z"/>
          <path class="cls-7" d="m422.39,135.39c-.16.3-.27.57-.42.81-.13.21-.1.32.12.43.5.27.99.55,1.47.86.32.21.54.1.66-.2.1-.26.14-.56.18-.84.08-.5.14-1.01.21-1.52l.21-.03c.1.27.17.54.3.79.12.23.33.4.45.63.24.43.49.87.64,1.33.11.34.18.62.57.74.17.05.32.23.45.37.56.63,1.11,1.26,1.67,1.9.06.07.15.14.16.22.17.93.37,1.87.02,2.8-.03.08-.08.17-.14.24-.57.7-.98,1.48-1.06,2.29-.49.24-.91.47-1.34.66-.1.05-.26.02-.37-.03-.15-.07-.27-.19-.41-.3-.16.14-.3.26-.44.37-.24-.07-.47-.15-.7-.19-.5-.09-.86-.28-.91-.86-.01-.16-.17-.32-.29-.45-.32-.31-.67-.58-.6-1.13-.27.24-.54.47-.8.7-.05-.03-.09-.04-.1-.07-.55-1.32-1.36-1.42-2.66-1.28-.43.04-.85.15-1.26.25-.23.06-.52.13-.66.3-.32.4-.68.47-1.14.37-.43-.09-.81.04-1.16.3-.31.23-.65.34-1.03.14-.32-.16-.55-.32-.26-.73.1-.14.09-.42.04-.61-.23-.87-.56-1.72-.74-2.6-.26-1.32-.1-1.55,1.15-2.05.45-.18.93-.31,1.41-.41.48-.1.77-.35.87-.83.06-.27.18-.44.48-.53.2-.06.35-.27.51-.43.12-.13.2-.31.33-.44.36-.4.63-.44,1.07-.1.35.27.51.18.69-.19.38-.78,1.01-1.05,1.88-.84.29.07.6.09.98.14Z"/>
          <path class="cls-7" d="m329.55,91.31c.21.1.42.27.63.28.53.02,1.06.01,1.58-.08.61-.1,1.19-.12,1.77.08.32.11.39.36.17.55-.22.19-.54.33-.83.36-.61.06-1.24.07-1.86.04-.64-.03-1.27-.12-1.91-.2-.32-.04-.41-.25-.43-.55-.03-.63-.15-.72-.78-.75-.26-.02-.52-.06-.76-.15-.1-.04-.15-.23-.22-.35.13-.06.25-.15.38-.16.16,0,.33.06.49.1.53.12,1.06.32,1.59.32.4,0,.8-.24,1.16-.36.07-.44.1-.83.2-1.21.03-.12.23-.24.37-.26.39-.07.79-.08,1.33-.13-.36-.29-.63-.51-.9-.72-.03.03-.06.06-.1.09.01.15.03.29.03.39-.44.24-.85.47-1.26.7-.69.38-1.77.15-2.13-.47.21-.1.42-.19.63-.29l-.03-.14c-.23.02-.46.03-.68.06-.42.05-.8,0-.95-.44-.14-.44.13-.72.47-.94.03-.02.05-.03.08-.05.5-.36.97-.51,1.47.06.2.22.55.33.85.43.37.13.78.15.96.6.03.08.21.11.35.18-.02-.93-.12-.88.87-.7.19.04.39.03.59.02,0,0,.03-.28.02-.28-.2-.03-.41-.04-.62-.06-.29-.03-.58-.07-.86-.09-.16-.01-.33-.03-.47.03-.38.17-.61.09-.85-.26-.2-.3-.51-.51-.82-.82.62-.07,1.24-.12,1.85-.2.15-.02.29-.15.44-.21.13-.06.27-.16.39-.14.31.06.61.18.83.24.28-.2.48-.45.73-.5,1.64-.31,3.31-.54,4.98-.36.88.09,1.74.33,2.6.52.14.03.26.12.49.22-.32.11-.54.17-.74.25-.47.16-.91.29-1.3.68-.39.39-1.02.54-1.53.82-.22.12-.39.32-.6.45-.13.09-.3.13-.46.18-.52.16-1.04.3-1.56.45,0,.04,0,.08,0,.13.18.04.37.07.55.11-.09.59-.27.77-.83.91-.18.05-.34.21-.5.33-.18.13-.36.28-.61.47.22.06.4.11.57.16-.11.45-.48.66-.9.56-.37-.08-.74-.13-1.12-.14-.7-.03-1.4-.02-2.11-.02-.23,0-.46.05-.69.07l-.03.21Zm3.49-3.95c.65.13,1.33-.1,1.51-.61-.48.2-.96.39-1.51.61Zm-2.11,2.22s-.04.08-.06.12c.11.09.21.21.34.24.12.03.26-.05.39-.08-.09-.08-.18-.19-.29-.24-.12-.05-.26-.04-.39-.05Z"/>
          <path class="cls-7" d="m329.96,95.33h.67s.01-.06.02-.09c-.17-.05-.33-.13-.5-.15-.43-.05-.53-.31-.47-.68.12-.69.71-1.23,1.39-1.28.12,0,.31-.02.35.04.23.35.52.21.81.14.87-.23,1.21.07,1.11.98,0,.06,0,.12,0,.18.23-.05.43-.1.63-.13.19-.03.38-.04.68-.07-.44-.44-1.23-.2-1.31-.92.57-.27,1.41-.07,1.77.4.21.28.46.53.69.8.25.3.57.42.94.35.29-.06.45.06.58.31.07.13.25.21.39.28.25.12.52.19.76.33.5.29.51.52.09.91-.05.05-.12.09-.28.21,1,.49,1.93.94,2.93,1.43-.3.32-.59.66-.91.97-.04.03-.25-.06-.34-.14-.21-.19-.39-.43-.61-.6-.28-.22-.57-.16-.89.18.38.3.74.61,1.11.88.5.37.58.58.36,1.21-.51-.18-1.03-.36-1.54-.54-.02.04-.04.08-.06.12l1.11.88s-.02.05-.03.08c-.25-.05-.5-.09-.73-.17-.68-.23-1.4-.34-1.84-1.05-.39-.62-1.04-.44-1.63-.31-.15.03-.36.07-.46,0-.1-.08-.18-.35-.12-.43.09-.12.3-.19.46-.2.35,0,.69.04,1.04.06-.03-.05-.06-.09-.09-.14.24-.35.5-.68.71-1.04.08-.13.08-.35.03-.51-.05-.15-.17-.31-.31-.39-.75-.47-1.5-.93-2.19-1.63-.1.5-.37.52-.72.48-1.01-.11-2.02-.18-3.03-.28-.27-.02-.51-.1-.59-.49Zm1.5-1.75c-.06-.02-.13-.05-.19-.07-.07.2-.18.4-.19.6-.01.26.05.54.49.66-.04-.44-.08-.82-.12-1.19Z"/>
          <path class="cls-7" d="m321.07,94.24c.39-.47.62-.45.89.03.08.13.13.28.22.4.05.06.17.08.26.11.02-.09.07-.19.05-.28-.02-.1-.11-.18-.16-.28-.15-.29-.22-.54.21-.68.23-.07.42-.26.64-.34.12-.04.28.04.42.07-.03.14,0,.34-.09.4-.27.19-.21.4-.11.63.03.07.07.14.09.21.16.7.5,1.19,1.29,1.26.08,0,.21.25.2.36-.04.28,0,.69-.46.65-.39-.03-.79-.13-1.17-.24-.29-.09-.52-.06-.82.04-.62.2-1.28.29-1.93.39-.12.02-.34-.08-.38-.18-.14-.35-.41-.38-.72-.36-.12,0-.28.03-.36-.03-.15-.13-.25-.31-.37-.47.14-.08.27-.21.42-.22.49-.03.98-.01,1.49-.12-.21-.05-.41-.12-.62-.14-.4-.02-.8.01-1.2-.01-.18-.01-.36-.1-.54-.16.1-.14.19-.28.28-.41-.81-.17-.73-.43-.3-1.02-.02-.04-.04-.07-.07-.11-.27.18-.55.35-.8.55-.18.14-.3.35-.47.5-.44.38-.79.37-1.24.02-.16-.13-.37-.2-.56-.29.11-.59.78-1.04.44-1.82.51,0,.99-.02,1.47,0,.33.02.66.07.98.14.27.06.54.16.8.27.19.08.37.2.55.31.18.11.36.23.61.38.38-.18.78-.05,1.06.4Z"/>
          <path class="cls-7" d="m419.95,130.59c.36,0,.72-.02,1.08,0,.24.02.36.14.34.43-.01.19.11.47.26.56.11.07.41-.05.55-.17.39-.33.74-.52,1.27-.23.42.23.94.29,1.39.49.48.22.93.52,1.38.79.22.13.43.26.67.41-.3.21-.18.49.05.71.36.34.75.65,1.11.94-.32.18-.99.04-1.37-.36-.17-.18-.33-.37-.53-.51-.46-.33-.71-.29-.97.19-.2.37-.43.38-.74.19-.09-.06-.19-.1-.28-.16-.31-.23-.63-.37-1.01-.16-.08.04-.2,0-.33-.09.19-.09.38-.19.57-.28-.05-.61-.26-.9-.81-1.06-.49-.15-1-.26-1.49-.4-.07-.02-.19-.1-.19-.15.03-.66-.49-.8-.94-1.12Z"/>
          <path class="cls-7" d="m414.34,127.54c.23.19.49.4.77.64-.03.03-.08.08-.13.12-.5.4-.56.58-.28,1.13.15.29.14.5-.04.78-.32.5-.57,1.03-.87,1.57-.63-.08-1.34-.18-2.04-.28-.05,0-.13-.05-.15-.09-.17-.39-.38-.77-.5-1.17-.1-.34,0-.58.45-.66.35-.07.67-.35.97-.58.61-.46,1.19-.95,1.82-1.46Z"/>
          <path class="cls-7" d="m386.6,135.32c.32.55.54.99.3,1.62-.38,1-.62,2.05-.97,3.06-.09.28-.3.59-.54.73-.49.28-.82.07-1-.47-.17-.53-.29-1.02.15-1.5.11-.12.1-.41.06-.6-.2-.91-.14-1.08.74-1.36.57-.18.74-.7,1.05-1.11.07-.09.12-.21.21-.38Z"/>
          <path class="cls-7" d="m424.48,110.76c.48.29.95.57,1.42.85-.23.4-.88.64-1.43.52-.15-.03-.35.09-.49.2-.04.03.02.29.11.37.43.38.52.77.26,1.3-.18.36-.25.79-.34,1.19-.06.25-.16.41-.44.44-.32.04-.63.12-.95.18-.06.01-.15,0-.17.04-.33.56-1.02.22-1.44.57-.08.06-.23.03-.41.05.05-.15.09-.27.13-.39-.33-.03-.32-.03-.42.51-.05.26-.16.51-.36.78-.12-.31-.26-.62-.36-.94-.02-.06.1-.17.18-.23.25-.2.53-.36.77-.57.35-.3.76-.4,1.2-.35.26.03.43-.02.55-.28.06-.14.22-.28.36-.32,1.07-.32,1.27-1.22,1.16-2.3-.02-.16.05-.42.16-.47.4-.19.52-.49.51-.89,0-.11,0-.21.01-.25Z"/>
          <path class="cls-7" d="m389.86,95.67c-.95.15-1.52-.51-2.25-.83.16-.21.32-.41.47-.62.37-.52.72-1.04,1.08-1.57.63-.92,1.63-1.25,2.64-1.41.69-.11,1.35-.23,1.98-.53.26-.13.6-.32.78.06.03.07-.34.41-.57.51-.38.16-.79.23-1.2.32-1.1.24-2.01.8-2.8,1.58-.24.24-.52.48-.65.78-.33.72-.25.96.35,1.52.05.05.1.11.17.18Z"/>
          <path class="cls-7" d="m373.14,88.62c0-.12,0-.19,0-.25,0-.36.18-.51.47-.32.85.56,1.69,1.15,2.53,1.73.07.05.1.17.14.26-.1.05-.2.14-.3.15-.53.05-.76-.13-.98-.63-.06-.15-.2-.32-.34-.36-.09-.02-.28.15-.37.28-.34.47-.66.95-1,1.44-.28-.19-.56-.33-.78-.53-.12-.1-.22-.33-.19-.46.03-.13.24-.23.38-.33.12-.08.25-.13.37-.21.01,0-.04-.15-.06-.15-.18,0-.39-.05-.53.02-.61.32-.63.33-1.03-.24-.12-.18-.28-.33-.4-.5-.06-.09-.07-.21-.11-.32.11-.03.22-.1.33-.09.47.04.95.09,1.41.18.15.03.26.2.44.34Z"/>
          <path class="cls-7" d="m364.52,105.55c-.05-.16-.07-.33-.16-.46-.42-.57-.29-1.23.35-1.57.13-.07.28-.12.53-.23-.14.25-.24.43-.37.66.32.05.59.09.86.13,0,.08,0,.12-.02.14-.42.54-.42.53.02,1.05.43.51.87,1.02,1.28,1.55.19.24-.2.92-.56.98-.63.1-1.26.18-1.97.29.19-.12.36-.23.57-.37-.22-.15-.32-.22-.45-.31.21-.34.12-.81.58-1.01.05-.02.03-.38-.07-.49-.14-.16-.38-.23-.6-.34Z"/>
          <path class="cls-7" d="m409.4,131.38c.14-.08.23-.16.34-.19.07-.02.18.02.23.07.03.03.02.14,0,.2-.07.26-.16.51-.21.77-.07.38-.24.5-.57.29-.61-.39-1.14-.84-1.52-1.5-.5-.88-1.02-1.75-1.86-2.37-.13-.1-.22-.26-.29-.44.96.04,1.4.9,2.13,1.29.8.42,1.27,1.12,1.73,1.89Z"/>
          <path class="cls-7" d="m357.72,99.18c.55-.11,1.06-.21,1.58-.32.04,0,.1,0,.14-.01.7-.45.98.21,1.5.53-1.19.88-2.31,1.63-3.75.84,0-.14.02-.31,0-.46-.03-.18-.12-.34-.18-.51-.14.05-.29.11-.53.2.15-.46.41-.75.75-.75.18,0,.37.35.5.49Z"/>
          <path class="cls-7" d="m319.81,92.46c.12-.11.22-.2.39-.35-.16-.05-.26-.1-.36-.1-.07,0-.14.09-.21.09-.35-.04-.69-.11-1.04-.16.21-.32.42-.64.65-.95.04-.06.22-.07.3-.03.42.2.82.45,1.25.64.27.12.58.16.88.23.03-.05.05-.1.08-.15-.08-.11-.17-.23-.25-.34-.14-.22-.14-.45.12-.52.12-.03.41.11.43.22.11.45.36.51.76.42.13-.03.29.05.43.08-.07.19-.11.4-.21.57-.04.07-.2.1-.29.09-.73-.07-1.39.18-2.06.4-.28.09-.61.22-.88-.14Z"/>
          <path class="cls-7" d="m403.88,88.05c.35-.68.74-1.18,1.5-1.24.47-.04.85.18.89.64.03.4.22.48.57.46.24-.01.57-.11.54.34-.05.65-.13.75-.63.69-.7-.08-1.39-.18-1.99-.63-.22-.17-.56-.17-.87-.25Z"/>
          <path class="cls-7" d="m434.67,150.23c.34-.28.68-.53.98-.82.42-.41.83-.83,1.21-1.28.17-.21.34-.36.56-.18.1.08.14.38.07.49-.21.34-.29.78-.76.92-.11.03-.19.23-.23.37-.3.99-.9,1.19-1.82.5Z"/>
          <path class="cls-7" d="m325.18,93.36c.42-.33.89-.35,1.36-.28.05,0,.04.34.06.53-.04,0-.08,0-.13.01.17.24.36.48.51.73.14.23.04.39-.2.51-.44.22-.81.27-1.17-.17-.14-.18-.4-.26-.6-.39-.14-.1-.27-.21-.41-.32.03-.05.06-.09.09-.14.13.04.27.1.4.13.12.02.25,0,.38,0-.02-.14-.03-.29-.08-.42-.02-.07-.13-.11-.22-.19Z"/>
          <path class="cls-7" d="m343.49,107.55c0,.29-.11.68.03.86.15.19.55.18.89.28.11.36.24.78.37,1.18-.43-.1-.84-.21-1.26-.27-.42-.06-.84-.07-1.34-.11.42-.7.81-1.35,1.19-2,.04.02.08.05.12.07Z"/>
          <path class="cls-7" d="m364.13,105.58c-.05.27-.14.48-.12.67.06.52-.19.8-.66.95-.12.04-.23.09-.35.12-.19.03-.38.04-.57.07.03-.18.07-.37.07-.55,0-.23-.02-.47-.04-.8.37-.19.81-.43,1.27-.62.1-.04.28.13.38.18Z"/>
          <path class="cls-7" d="m424.8,91.93c.03-.13.06-.25.08-.38.03-.02.07-.05.09-.04.27.08.72-.07.74.33.02.43-.44.28-.68.33-.6.11-1.21.21-1.81.21-.21,0-.46-.25-.62-.45-.06-.07.05-.38.16-.45.18-.11.45-.18.64-.12.33.09.63.38.95,0,0,0,.23.12.28.22.05.1.01.24.01.36.05,0,.11,0,.16-.01Z"/>
          <path class="cls-7" d="m377.59,87.9c-.94,1.12-2.38.67-3.73.01.32-.12.54-.27.77-.27.79.02,1.58.08,2.37.14.18.01.35.07.59.12Z"/>
          <path class="cls-7" d="m325.38,92.22v-.52c-.69.1-1.29,0-1.61-.67.02-.05.05-.09.07-.14.13.06.29.08.37.18.32.43.7-.02,1.04.09.18-.52.58-.2.87-.2.58,0,.4.51.44.84.05.3-.14.44-.45.43-.23-.01-.45,0-.73,0Z"/>
          <path class="cls-7" d="m439.59,146.41c-.5.71-.9,1.27-1.32,1.85-.14-.41-.26-.75-.42-1.21.69-.69-.05-1.28-.52-1.91.05-.03.1-.06.14-.09.15.13.3.25.44.39.08.09.13.21.19.31.32.49.69.9,1.49.66Z"/>
          <path class="cls-7" d="m333.43,100.5c-.28-.12-.5-.21-.71-.31-.25-.11-.48-.12-.65.14-.19.29-.4.4-.71.14-.1-.08-.25-.1-.35-.14.07-.38.13-.74.22-1.08.03-.1.24-.24.28-.22.65.4,1.28.83,1.91,1.25.02.01,0,.06.01.22Z"/>
          <path class="cls-7" d="m413.54,133.7c-1.18.25-2.18-.02-3.18-.21-.13-.02-.29-.05-.38-.14-.12-.11-.18-.28-.27-.43.13-.03.29-.13.4-.09.67.24,1.34.3,2.05.34.43.03.85.31,1.39.52Z"/>
          <path class="cls-7" d="m415.44,130.38c.27.84.91.13,1.35.49-.73.14-.48.48-.27.85.13.23.19.5.28.75-.05.03-.09.06-.14.1-.3-.34-.61-.69-.98-1.11-.03.45-.05.8-.07,1.15-.04,0-.08-.01-.12-.02-.11-.34-.29-.68-.31-1.02-.01-.35.15-.71.26-1.19Z"/>
          <path class="cls-7" d="m316.28,91.29c.87-.43,1.53-1.34,2.7-1.1.08.36-.03.66-.39.84-.09.05-.24,0-.35,0-.14,0-.36-.04-.42.03-.45.53-1,.28-1.53.22Z"/>
          <path class="cls-7" d="m331.86,121.19c.95-.63,2.95-.19,4.14.98-.54-.04-1.01.15-1.41-.19-.72-.61-1.51-.92-2.46-.69-.06.01-.12,0-.18,0-.02,0-.04-.04-.09-.09Z"/>
          <path class="cls-7" d="m417.58,127.97c-.37-.17-.32-1.06-1.08-.6.67-.65-.16-1.15-.08-1.84.26.19.49.35.7.5-.07.23-.15.42-.18.61-.02.11.02.3.1.35.08.05.26,0,.36-.05.2-.13.38-.3.56-.45.52.39.39.99-.39,1.49Z"/>
          <path class="cls-7" d="m417.35,125.29c-.19-.12-.37-.23-.56-.35-.17-.1-.33-.21-.5-.31-.11.17-.21.31-.32.47-.13-.3-.32-.53-.32-.76,0-.49.08-.98.17-1.46,0-.05.34-.12.37-.07.13.18.34.49.27.6-.43.68-.43,1.13.45,1.38.18.05.28.34.42.51h.01Z"/>
          <path class="cls-7" d="m409.62,89.26c-.77.13-1.54.26-2.32.39.32-1.22,1.29-1.44,2.32-.39Z"/>
          <path class="cls-7" d="m325.83,89.81c-.76-.18-1.44-.34-2.1-.5q.22-.39-.42-.64c.22-.33.53-.22.76-.11.63.31,1.57.19,1.77,1.25Z"/>
          <path class="cls-7" d="m425.66,147.92h1.42c.08.3-.17.97-.46,1.14-.26.15-.45.05-.56-.19-.15-.31-.27-.64-.4-.95Z"/>
          <path class="cls-7" d="m338.43,122.72c-.45.1-.82.19-1.19.26-.13.02-.29.02-.4-.04-.12-.07-.29-.25-.27-.33.04-.14.2-.31.34-.34.56-.13,1.02.16,1.52.45Z"/>
          <path class="cls-7" d="m328.17,90.05c-.76.06-1.68-.22-1.88-.86.48-.16.94,0,1.2.41.08.12.2.22.32.3.1.07.24.1.36.15Z"/>
          <path class="cls-7" d="m385.29,87.39c.6-.13,1.19-.27,1.8-.39.08-.02.17.07.26.1-.05.09-.07.22-.14.25-.31.13-.62.31-.94.33-.34.01-.68-.14-1.02-.22l.06-.06Z"/>
          <path class="cls-7" d="m390.38,87.1c-.55.05-1.08.1-1.6.15l-.07-.1c.14-.1.28-.22.43-.3.13-.07.31-.07.43-.15.52-.35.64-.32.81.4Z"/>
          <path class="cls-7" d="m327.74,92.53c-.22-.07-.4-.09-.52-.19-.11-.09-.17-.27-.2-.42,0-.03.2-.15.32-.16.2-.02.44-.04.59.06.13.08.22.33.22.5,0,.08-.28.15-.41.21Z"/>
          <path class="cls-7" d="m399.51,126.52c.13.31.31.6.38.92.03.11-.18.28-.27.42-.14-.1-.38-.2-.39-.32-.04-.33.02-.66.05-.99.08-.01.16-.02.24-.04Z"/>
          <path class="cls-7" d="m428.09,92.35c-.7.14-1.28.08-1.81-.36.35-.21,1.5,0,1.81.36Z"/>
          <path class="cls-7" d="m320.15,90.04c.27-.4.64-.36,1-.31.08.01.18.12.2.2.02.08-.03.21-.1.27-.22.18-.84.09-1.1-.16Z"/>
          <path class="cls-7" d="m335.21,98.16c-.17-.23-.35-.42-.33-.45.14-.18.32-.35.52-.46.04-.02.34.27.32.3-.11.19-.28.35-.51.61Z"/>
          <path class="cls-7" d="m391.9,87.32c-.42.14-.79.25-1.17.37.43-.92.65-1.01,1.17-.37Z"/>
          <path class="cls-7" d="m427.38,132.78c.54-.22,1.07-.44,1.56-.64-.1.6-.96.99-1.56.64Z"/>
          <path class="cls-7" d="m425.1,93.54c-.69.13-.86.06-1.25-.51.35-.15,1.11.14,1.25.51Z"/>
          <path class="cls-7" d="m439.62,95.34c.3-.5.71-.49,1.12-.43.08.01.15.12.22.19-.08.08-.15.22-.24.22-.34.03-.69.01-1.11.01Z"/>
          <path class="cls-7" d="m416.36,120.01c-.16.48-.14.91-.55,1.19-.22-.52-.07-.89.55-1.19Z"/>
          <path class="cls-7" d="m418.5,133.72c-.53.33-.94.6-1.36.86-.03-.44.59-.89,1.36-.86Z"/>
          <path class="cls-7" d="m320.63,89.16c.26-.03.52-.07.78-.06.07,0,.13.19.2.29-.11.05-.22.14-.32.13-.21-.03-.41-.12-.61-.19-.02-.05-.03-.11-.05-.16Z"/>
          <path class="cls-7" d="m392.18,87.1c.24-.09.48-.2.73-.27.07-.02.17.07.26.1-.05.09-.08.24-.14.25-.26.05-.53.07-.8.09-.01-.06-.03-.12-.04-.18Z"/>
          <path class="cls-7" d="m341.63,153.37c.3-.06.59-.12.89-.16.05,0,.12.1.17.16-.07.06-.14.17-.22.18-.27.02-.54,0-.82,0-.01-.06-.02-.12-.03-.19Z"/>
          <path class="cls-7" d="m312.57,106.97c-.19-.27-.38-.54-.57-.81.06-.04.12-.08.17-.12.55.02.2.66.5.86-.03.02-.07.05-.1.07Z"/>
          <path class="cls-7" d="m390.29,87.69c-.29.04-.57.07-.92.12.19-.34.49-.41.9-.27l.02.15Z"/>
          <path class="cls-7" d="m386.53,96.34c.16.15.25.25.35.34-.11.08-.21.2-.34.23-.08.02-.19-.11-.28-.17.08-.11.15-.21.27-.39Z"/>
          <path class="cls-7" d="m416.56,130.12h-.86c.19-.28.43-.3.86,0Z"/>
          <path class="cls-7" d="m417.34,125.3c.15.08.39.13.43.24.04.16-.07.36-.11.54-.04-.01-.07-.03-.11-.04-.07-.25-.13-.5-.2-.75,0,0-.01.01-.01.01Z"/>
          <path class="cls-7" d="m413.98,133.8c.31-.02.63-.03.94-.05,0,.05,0,.1.01.16-.32.04-.63.07-.95.11,0-.07,0-.14,0-.22Z"/>
          <path class="cls-7" d="m418.86,130.26c-.34-.48-.3-.64.2-.72-.07.25-.12.45-.2.72Z"/>
          <path class="cls-7" d="m418.95,131.61h.83s0,.08.01.12c-.28.02-.55.04-.83.05,0-.06,0-.11-.01-.17Z"/>
          <path class="cls-7" d="m433.85,138.77c.26.2.52.4.78.6-.03.04-.06.08-.1.12-.26-.2-.52-.4-.77-.6.03-.04.06-.08.09-.12Z"/>
          <path class="cls-7" d="m332.83,101.06c-.17.08-.34.16-.51.22,0,0-.1-.19-.1-.2.16-.09.33-.17.5-.26.04.08.07.15.11.23Z"/>
          <path class="cls-7" d="m334.16,110.93c-.66-.07-.77.47-1.09.95-.28-.54-.51-.98-.74-1.43-.63.4-1.1.82-.88,1.65.03.12-.22.33-.34.49-.11-.15-.32-.31-.31-.46.02-.47.1-.94.22-1.4.03-.14.23-.29.38-.34.75-.26,1.52-.18,2.27-.07.19.03.35.3.52.46,0,.05-.01.11-.02.16Z"/>
          <path class="cls-7" d="m329.14,109.79c.64-.36,1.21-.69,1.79-1.02.06-.03.18-.07.22-.04.42.33.84.67,1.21,1.09-.55.04-1.05.48-1.58.03-.1-.08-.35-.02-.51.03-.36.12-.7.16-1.13-.1Z"/>
          <path class="cls-7" d="m334.37,112.07c-.42.17-.83.35-1.26.5-.08.03-.21-.11-.31-.17.08-.1.14-.25.24-.28.42-.1.84-.16,1.27-.23.02.06.04.13.06.19Z"/>
          <path class="cls-7" d="m315.16,108.18c.86.22,1.49.69,1.16,1.29-.39-.44-.77-.87-1.16-1.29Z"/>
          <path class="cls-7" d="m334.31,111.47c.41-.1.83-.21,1.29-.32-.16.54-.24.57-1.24.48-.02-.05-.03-.11-.05-.16Z"/>
          <path class="cls-7" d="m333.04,87.36c.54-.22,1.02-.42,1.51-.61-.18.52-.85.75-1.51.61Z"/>
          <path class="cls-7" d="m330.92,89.58c.13.01.27,0,.39.05.11.05.19.16.29.24-.13.03-.27.11-.39.08-.13-.03-.23-.16-.34-.24.02-.04.04-.08.06-.12Z"/>
          <path class="cls-7" d="m331.46,93.58c.04.38.07.75.12,1.19-.44-.13-.51-.4-.49-.66,0-.2.12-.4.19-.6.06.02.13.05.19.07Z"/>
          <path class="cls-7" d="m373.02,114.18c-.18.18-.35.37-.56.59-.26-.15-.54-.32-.82-.48l.04-.11c.45,0,.9,0,1.35,0,0,0,0,0,0,0Z"/>
          <path class="cls-7" d="m370.38,112.66c0,.3.02.56,0,.82,0,.07-.15.2-.2.19-.1-.02-.23-.12-.24-.2-.05-.31-.11-.65.45-.8Z"/>
        </g>
      </g>
      <g>
        <path class="cls-7" d="m391.87,171.82c-.87,0-1.75-.11-2.6-.32-2.17-.53-4.07-1.69-5.54-3.36-2.92-1.74-5.17-4.17-6.51-7.08-1.27-2.75-1.47-5.28-.61-7.54.12-.32.27-.63.42-.91-5.97.2-11,.3-15,.3-3.5,0-6.26-.08-8.2-.23h-46.66c-.47,0-.93-.12-1.34-.32-3.65-1.83-3.76-4.02-3.49-5.16.7-3.05,4.4-3.09,5.97-3.11,6.58-.08,71.67-3.56,76.71-4.48.17-.06.35-.1.53-.13l1.7-.26c-4.77-4.22-6.46-8.95-7.58-12.09,0,0-.35-.97-.36-1.01,0,0-13.79.37-13.81.37-.49,0-.98-.12-1.41-.35-1.68-.89-2.49-2.36-2.18-3.92.15-.74.79-2.49,3.57-2.75l.88-.08c2.27-.2,7.8-.68,13.15-1.3-5.37-26.94-5.35-27-5.14-27.87.57-2.3,2.24-3.12,3.61-3.12,1.87,0,3.18,1.45,3.65,2.08.09.12.17.25.25.38l2.6,4.8c.06.1.1.21.15.31l8.31,20.73s.16.03.16.03c3.2-.75,7.83-1.03,10.97-1.03,1.36,0,3.22.05,4.33.28,1.37.29,2.36,1.49,2.38,2.89,0,.23-.02.45-.06.66,13.81,2.24,30.98,5.1,39.53,6.84,3.17-.99,6.3-1.96,6.9-2.15.26-.11,1.04-.43,2.15-.9,13.51-5.63,19.45-8.07,20.48-8.4.49-.16.99-.24,1.49-.24,1.82,0,3.46,1.11,4.19,2.82.67,1.6.39,3.38-.74,4.53-.73.75-2.46,2.41-2.46,2.41-.15.15-.32.28-.5.39-2.92,1.81-10.01,5.38-16.85,8.69,2.75,2.48,5.13,5.45,5.72,8.04.44,1.93,2.52,5.2,3.81,6.93,3.07,3.14,5.44,9.87-.28,16.19-2.39,2.63-6.5,3.97-12.21,3.97h0c-8.46,0-18-2.84-18.4-2.96-.07-.02-.14-.04-.21-.07-15.77-6.03-19.62-7.53-20.65-7.95-.15,0-.3,0-.46,0-3.9,0-9.98-.89-17.08-5.02-1.34.08-4.07.23-7.6.41,1.46.89,2.69,2.13,3.6,3.63,1.5,2.48,1.94,5.39,1.25,8.2-1.2,4.86-5.52,8.25-10.52,8.25Z"/>
        <path class="cls-1" d="m377.97,90.07c.58,0,1.26.89,1.26.89l2.6,4.8,9.12,22.75,1.52-.17s.27.04.76.12c2.78-.77,7.44-1.09,10.83-1.09,1.68,0,3.05.08,3.72.22l-7.93,1.91c13.08,2.08,39.96,6.43,50.54,8.64,3.74-1.16,7.68-2.39,7.77-2.42.18-.06,20.85-8.72,22.53-9.27.2-.06.39-.09.56-.09,1.31,0,1.93,1.61,1.3,2.26-.71.73-2.39,2.34-2.39,2.34-3.54,2.2-13.59,7.14-20.93,10.63,4.25,2.81,7.89,6.86,8.45,9.32.77,3.39,4.47,8.24,4.47,8.24,0,0,5.77,5.58-.23,12.2-2.03,2.24-5.84,2.98-9.99,2.98-8.12,0-17.54-2.83-17.54-2.83,0,0-20.36-7.78-20.73-7.98,0,0-.16-.07-.45-.19-.31.01-.64.02-1,.02-3.42,0-9.33-.79-16.34-5.07,0,0-7.87.46-17.66.89l-.18,1.43,4.69,2.59c.33.04.66.09,1,.17,4.2,1.03,6.77,5.28,5.74,9.49-.88,3.57-4.08,5.97-7.61,5.97-.62,0-1.25-.07-1.88-.23-1.77-.44-3.25-1.45-4.29-2.78-1.94-1.07-4.32-2.93-5.75-6-2.71-5.86,1.93-7.84,1.93-7.84,0,0,.06-1.37.11-2.53-6.94.27-14.19.47-19.95.47-3.29,0-6.09-.07-8.08-.23h-46.78s-5.03-2.52,1.17-2.6c6.2-.07,76.49-3.77,77.66-4.65l9.41-1.46c-.36-.18-.71-.36-1.03-.53-8.98-4.66-10.76-11.28-12.23-15.27-.3-.8-.41-1.51-.41-2.14l-16.26.43s-1.63-.87.26-1.04c1.16-.11,9.55-.8,16.59-1.69.19-.33.4-.6.59-.81-.94-4.71-5.72-28.76-5.66-29.03.15-.62.42-.83.7-.83m0-6c-2.59,0-5.61,1.67-6.53,5.4q-.36,1.46,2.39,15.44c.72,3.64,1.47,7.44,2.08,10.53-4.17.44-8.02.78-9.82.94-.43.04-.74.07-.91.08-3.9.37-5.78,2.9-6.23,5.15-.57,2.85.88,5.66,3.71,7.16.87.46,1.84.71,2.82.71.05,0,.11,0,.16,0l11.57-.31c.79,2.15,1.94,4.95,4.01,7.83-14.31,1.22-66.39,4.01-72.95,4.09-5.06.06-8.05,1.89-8.86,5.43-.37,1.61-.62,5.67,5.08,8.52.83.42,1.75.63,2.68.63h46.55c2.03.16,4.75.24,8.31.24,3.1,0,6.81-.06,11.08-.18-.11,1.82.21,4.05,1.38,6.59,1.54,3.32,4.05,6.13,7.31,8.16,1.82,1.92,4.17,3.3,6.74,3.93,1.09.27,2.2.4,3.31.4,6.38,0,11.9-4.33,13.43-10.53.85-3.47.31-6.97-1.27-9.89.14,0,.27-.01.39-.02,7.28,4.05,13.57,4.96,17.69,4.98,1.83.73,6.66,2.59,20.15,7.75.14.05.28.1.42.14.42.13,10.37,3.09,19.27,3.09,6.7,0,11.42-1.62,14.44-4.95,7.02-7.75,4.16-16.1.35-20.14-1.34-1.82-2.92-4.48-3.18-5.65-.5-2.21-1.86-4.45-3.6-6.51,4.98-2.45,10.66-5.33,13.38-7.02.36-.22.69-.48,1-.78.18-.17,1.77-1.7,2.52-2.48,1.97-2.02,2.5-5.08,1.35-7.79-1.19-2.83-3.92-4.66-6.95-4.66-.81,0-1.63.13-2.42.39-.97.32-4.78,1.85-20.72,8.49-.97.4-1.68.7-2.01.84-.47.15-1.9.6-6.03,1.88-8.33-1.66-23.64-4.23-36.64-6.34-.68-1.94-2.33-3.45-4.43-3.89-.41-.09-1.65-.35-4.95-.35-2.71,0-6.2.18-9.25.65l-7.42-18.5c-.09-.21-.18-.42-.3-.63l-2.6-4.8c-.14-.27-.31-.52-.49-.76-.74-.98-2.82-3.27-6.04-3.27h0Z"/>
      </g>
      <text class="cls-2" transform="translate(78.54 130.28)"><tspan class="cls-10" x="0" y="0">V</tspan><tspan class="cls-6" x="47.18" y="0">A</tspan><tspan class="cls-4" x="95.9" y="0">Y</tspan><tspan x="144.48" y="0">I</tspan><tspan class="cls-3" x="166.26" y="0">C</tspan><tspan class="cls-5" x="213.44" y="0">A</tspan></text>
    </g>
  </g>
</svg>